<?xml version="1.0" encoding="UTF-8" standalone="no"?>
<svg
   xmlns:dc="http://purl.org/dc/elements/1.1/"
   xmlns:cc="http://creativecommons.org/ns#"
   xmlns:rdf="http://www.w3.org/1999/02/22-rdf-syntax-ns#"
   xmlns:svg="http://www.w3.org/2000/svg"
   xmlns="http://www.w3.org/2000/svg"
   viewBox="0 0 299.99999 299.99999"
   height="300"
   width="300"
   xml:space="preserve"
   id="svg2"
   version="1.1"><metadata
     id="metadata8"><rdf:RDF><cc:Work
         rdf:about=""><dc:format>image/svg+xml</dc:format><dc:type
           rdf:resource="http://purl.org/dc/dcmitype/StillImage" /><dc:title></dc:title></cc:Work></rdf:RDF></metadata><defs
     id="defs6" /><g
     transform="matrix(1.3333333,0,0,-1.3333333,0,299.99995)"
     id="g10"><g
       transform="scale(0.1)"
       id="g12"><path
         id="path16"
         style="fill:#607c1c;fill-opacity:1;fill-rule:nonzero;stroke:none"
         d="m 7057.7339,5781.2147 h 18.47 l 7.44,339.62 -7.44,226.16 h -18.47 v -565.78" /><path
         id="path18"
         style="fill:#839e2e;fill-opacity:1;fill-rule:nonzero;stroke:none"
         d="m 7076.2039,5781.2147 h 18.46 v 565.78 h -18.46 v -565.78" /><path
         id="path20"
         style="fill:#e2dd2b;fill-opacity:1;fill-rule:nonzero;stroke:none"
         d="m 3197.51,6769.36 v 0 c -12.15,6.75 -12.15,24.24 0,30.99 v 0 c 16.13,8.96 9.55,33.52 -8.9,33.21 v 0 c -13.9,-0.22 -22.64,14.92 -15.49,26.84 v 0 c 9.49,15.82 -8.5,33.8 -24.32,24.32 v 0 c -11.92,-7.15 -27.06,1.59 -26.83,15.49 v 0 c 0.3,18.45 -24.26,25.03 -33.22,8.9 v 0 c -3.37,-6.08 -9.43,-9.12 -15.49,-9.12 l -18.47,-160.4 18.47,-69.87 c 6.06,0 12.12,-3.04 15.49,-9.12 v 0 c 8.96,-16.13 33.52,-9.55 33.22,8.9 v 0 c -0.23,13.9 14.91,22.64 26.83,15.49 v 0 c 15.82,-9.48 33.81,8.5 24.32,24.32 v 0 c -7.15,11.92 1.59,27.06 15.49,26.84 v 0 c 18.45,-0.31 25.03,24.25 8.9,33.21" /><path
         id="path22"
         style="fill:#c6c61a;fill-opacity:1;fill-rule:nonzero;stroke:none"
         d="m 2949,6769.36 v 0 c 12.16,6.75 12.16,24.24 0,30.99 v 0 c -16.12,8.96 -9.54,33.52 8.9,33.21 v 0 c 13.91,-0.22 22.65,14.92 15.5,26.84 v 0 c -9.49,15.82 8.49,33.8 24.31,24.32 v 0 c 11.93,-7.15 27.07,1.59 26.84,15.49 v 0 c -0.31,18.45 24.26,25.03 33.21,8.9 v 0 c 3.38,-6.08 9.44,-9.12 15.5,-9.12 v -230.27 c -6.06,0 -12.12,-3.04 -15.5,-9.12 v 0 c -8.95,-16.13 -33.52,-9.55 -33.21,8.9 v 0 c 0.23,13.9 -14.91,22.64 -26.84,15.49 v 0 c -15.82,-9.48 -33.8,8.5 -24.31,24.32 v 0 c 7.15,11.92 -1.59,27.06 -15.5,26.84 v 0 c -18.44,-0.31 -25.02,24.25 -8.9,33.21" /><path
         id="path24"
         style="fill:#607c1c;fill-opacity:1;fill-rule:nonzero;stroke:none"
         d="m 6878.9739,6398.3647 c -173.19,-79.97 -248.76,-285.2 -168.79,-458.38 79.97,-173.19 285.19,-248.76 458.38,-168.79 l -289.59,627.17" /><path
         id="path26"
         style="fill:#839e2e;fill-opacity:1;fill-rule:nonzero;stroke:none"
         d="m 7273.4739,6398.3647 c 173.19,-79.97 248.75,-285.2 168.78,-458.38 -79.96,-173.19 -285.19,-248.76 -458.38,-168.79 l 289.6,627.17" /><path
         id="path28"
         style="fill:#b25b36;fill-opacity:1;fill-rule:nonzero;stroke:none"
         d="m 6739.4739,5547.3147 44.9,-362.6 h 291.83 l 119.11,290.03 -119.11,234.06 -206.76,-8.32 c -79.78,-3.22 -139.78,-73.93 -129.97,-153.17" /><path
         id="path30"
         style="fill:#c16544;fill-opacity:1;fill-rule:nonzero;stroke:none"
         d="m 7412.9239,5547.3147 -44.9,-362.6 h -291.82 v 524.09 l 206.75,-8.32 c 79.79,-3.22 139.79,-73.93 129.97,-153.17" /><path
         id="path32"
         style="fill:#604747;fill-opacity:1;fill-rule:nonzero;stroke:none"
         d="m 7076.2039,5670.5247 h -238.65 c -39.89,0 -72.22,32.34 -72.22,72.23 v 0 c 0,39.89 32.33,72.23 72.22,72.23 h 238.65 l 92.08,-98.84 -92.08,-45.62" /><path
         id="path34"
         style="fill:#7a6262;fill-opacity:1;fill-rule:nonzero;stroke:none"
         d="m 7076.2039,5670.5247 h 245.57 c 36.07,0 65.3,29.23 65.3,65.29 v 13.87 c 0,36.06 -29.23,65.3 -65.3,65.3 h -245.57 v -144.46" /><path
         id="path36"
         style="fill:#607c1c;fill-opacity:1;fill-rule:nonzero;stroke:none"
         d="m 5556.8739,5996.6147 h 17.23 l 8.62,-261.78 -8.62,-132.72 h -17.23 v 394.5" /><path
         id="path38"
         style="fill:#839e2e;fill-opacity:1;fill-rule:nonzero;stroke:none"
         d="m 5574.1039,5996.6147 h 17.23 v -394.5 h -17.23 v 394.5" /><path
         id="path40"
         style="fill:#607c1c;fill-opacity:1;fill-rule:nonzero;stroke:none"
         d="m 5565.4939,5969.2947 8.61,27.32 c 0,0 -86.16,180.01 -228.59,142.07 -142.44,-37.95 -116.04,-193.03 -33.55,-172.69 82.49,20.35 120.99,73.7 168.28,62.7 47.3,-11 85.25,-59.4 85.25,-59.4" /><path
         id="path42"
         style="fill:#839e2e;fill-opacity:1;fill-rule:nonzero;stroke:none"
         d="m 5582.7239,5969.2947 -8.62,27.32 c 0,0 86.16,180.01 228.6,142.07 142.43,-37.95 116.03,-193.03 33.54,-172.69 -82.49,20.35 -120.99,73.7 -168.28,62.7 -47.3,-11 -85.24,-59.4 -85.24,-59.4" /><path
         id="path44"
         style="fill:#b25b36;fill-opacity:1;fill-rule:nonzero;stroke:none"
         d="m 5275.1139,5604.7547 53.18,-429.43 h 245.81 l 100.33,244.32 -100.33,197.15 -298.99,-12.04" /><path
         id="path46"
         style="fill:#c16544;fill-opacity:1;fill-rule:nonzero;stroke:none"
         d="m 5873.0939,5604.7547 -53.17,-429.43 h -245.82 v 441.47 l 298.99,-12.04" /><path
         id="path48"
         style="fill:#604747;fill-opacity:1;fill-rule:nonzero;stroke:none"
         d="m 5574.1039,5559.6047 h -331.44 c -20.87,0 -37.78,16.92 -37.78,37.79 v 95.99 c 0,20.87 16.91,37.79 37.78,37.79 h 331.44 l 109.36,-117.39 -109.36,-54.18" /><path
         id="path50"
         style="fill:#7a6262;fill-opacity:1;fill-rule:nonzero;stroke:none"
         d="m 5574.1039,5559.6047 h 331.44 c 20.87,0 37.79,16.92 37.79,37.79 v 95.99 c 0,20.87 -16.92,37.79 -37.79,37.79 h -331.44 v -171.57" /><path
         id="path52"
         style="fill:#607c1c;fill-opacity:1;fill-rule:nonzero;stroke:none"
         d="m 10211.864,6144.7947 h 33.8 l 16.9,-762.93 -16.9,125.71 h -33.8 v 637.22" /><path
         id="path54"
         style="fill:#839e2e;fill-opacity:1;fill-rule:nonzero;stroke:none"
         d="m 10245.664,6144.7947 h 33.8 v -637.22 h -33.8 v 637.22" /><path
         id="path56"
         style="fill:#607c1c;fill-opacity:1;fill-rule:nonzero;stroke:none"
         d="m 9971.1339,6055.1347 c -19.08,-58.91 41.1601,-175.55 99.5901,-235.85 58.44,-60.29 97.91,-46.53 157.39,-29.3 19.08,58.91 35.29,99.1 -23.15,159.4 -58.44,60.29 -174.35,122.97 -233.8301,105.75" /><path
         id="path58"
         style="fill:#839e2e;fill-opacity:1;fill-rule:nonzero;stroke:none"
         d="m 10525.534,6052.2447 c -58.91,19.07 -175.55,-41.16 -235.84,-99.6 -60.3,-58.44 -46.53,-97.91 -29.31,-157.39 58.91,-19.07 99.11,-35.28 159.4,23.16 60.3,58.44 122.98,174.35 105.75,233.83" /><path
         id="path60"
         style="fill:#e2dd2b;fill-opacity:1;fill-rule:nonzero;stroke:none"
         d="m 6437.91,6798.21 c -15.72,14.2 -15.72,38.87 0,53.06 l 35.61,32.15 c 24.96,22.54 7.81,63.94 -25.78,62.23 l -47.91,-2.45 c -21.15,-1.08 -38.6,16.37 -37.52,37.52 l 2.45,47.91 c 1.72,33.59 -39.69,50.74 -62.22,25.78 l -32.15,-35.61 c -7.38,-8.17 -17.57,-12 -27.67,-11.68 l -46.89,-242.75 46.89,-122 c 10.1,0.32 20.29,-3.51 27.67,-11.68 l 32.15,-35.61 c 22.53,-24.96 63.94,-7.81 62.22,25.78 l -2.45,47.91 c -1.08,21.15 16.37,38.6 37.52,37.52 l 47.91,-2.45 c 33.59,-1.71 50.74,39.69 25.78,62.22 l -35.61,32.15" /><path
         id="path62"
         style="fill:#c6c61a;fill-opacity:1;fill-rule:nonzero;stroke:none"
         d="m 6047.53,6798.21 c 15.72,14.2 15.72,38.87 0,53.06 l -35.61,32.15 c -24.96,22.54 -7.81,63.94 25.78,62.23 l 47.91,-2.45 c 21.15,-1.08 38.6,16.37 37.52,37.52 l -2.45,47.91 c -1.71,33.59 39.69,50.74 62.23,25.78 l 32.15,-35.61 c 7.37,-8.17 17.57,-12 27.66,-11.68 v -364.75 c -10.09,0.32 -20.29,-3.51 -27.66,-11.68 l -32.15,-35.61 c -22.54,-24.96 -63.94,-7.81 -62.23,25.78 l 2.45,47.91 c 1.08,21.15 -16.37,38.6 -37.52,37.52 l -47.91,-2.45 c -33.59,-1.71 -50.74,39.69 -25.78,62.22 l 35.61,32.15" /><path
         id="path64"
         style="fill:#607c1c;fill-opacity:1;fill-rule:nonzero;stroke:none"
         d="m 10245.664,6298.5547 h -150.63 c 0,-107.01 67.44,-193.76 150.63,-193.76 l 35.53,95.09 -35.53,98.67" /><path
         id="path66"
         style="fill:#839e2e;fill-opacity:1;fill-rule:nonzero;stroke:none"
         d="m 10245.664,6298.5547 h 150.63 c 0,-107.01 -67.44,-193.76 -150.63,-193.76 v 193.76" /><path
         id="path68"
         style="fill:#b25b36;fill-opacity:1;fill-rule:nonzero;stroke:none"
         d="m 9947.8139,5604.7547 53.1701,-429.43 h 245.82 l 100.33,244.32 -100.33,197.15 -298.9901,-12.04" /><path
         id="path70"
         style="fill:#c16544;fill-opacity:1;fill-rule:nonzero;stroke:none"
         d="m 10545.794,5604.7547 -53.18,-429.43 h -245.81 v 441.47 l 298.99,-12.04" /><path
         id="path72"
         style="fill:#604747;fill-opacity:1;fill-rule:nonzero;stroke:none"
         d="m 10246.804,5559.6047 h -331.4401 c -20.87,0 -37.79,16.92 -37.79,37.79 v 95.99 c 0,20.87 16.92,37.79 37.79,37.79 h 331.4401 l 109.36,-117.39 -109.36,-54.18" /><path
         id="path74"
         style="fill:#7a6262;fill-opacity:1;fill-rule:nonzero;stroke:none"
         d="m 10246.804,5559.6047 h 331.44 c 20.87,0 37.78,16.92 37.78,37.79 v 95.99 c 0,20.87 -16.91,37.79 -37.78,37.79 h -331.44 v -171.57" /><path
         id="path76"
         style="fill:#607c1c;fill-opacity:1;fill-rule:nonzero;stroke:none"
         d="m 8669.2939,6286.1847 h 34.68 l 17.35,-526.93 -17.35,-267.15 h -34.68 v 794.08" /><path
         id="path78"
         style="fill:#839e2e;fill-opacity:1;fill-rule:nonzero;stroke:none"
         d="m 8703.9739,6286.1847 h 34.69 v -794.08 h -34.69 v 794.08" /><path
         id="path80"
         style="fill:#607c1c;fill-opacity:1;fill-rule:nonzero;stroke:none"
         d="m 4289.89,6782.15 c 97.17,-136.97 258.67,-204.2 425.66,-194.75 l -161.6,366.88 -307.24,293.97 c -64.1,-154.5 -53.99,-329.14 43.18,-466.1" /><path
         id="path82"
         style="fill:#839e2e;fill-opacity:1;fill-rule:nonzero;stroke:none"
         d="m 4246.71,7248.25 468.84,-660.85 c 64.1,154.5 53.99,329.14 -43.18,466.1 -97.17,136.96 -258.67,204.2 -425.66,194.75" /><path
         id="path84"
         style="fill:#607c1c;fill-opacity:1;fill-rule:nonzero;stroke:none"
         d="m 4751.37,6906.55 c -73.19,-90.29 -87.93,-210.46 -50.52,-320.02 l 214.45,176.06 138.73,259.57 c -114.93,13.94 -229.46,-25.33 -302.66,-115.61" /><path
         id="path86"
         style="fill:#839e2e;fill-opacity:1;fill-rule:nonzero;stroke:none"
         d="m 5054.03,7022.16 -353.18,-435.63 c 114.93,-13.95 229.46,25.32 302.65,115.61 73.2,90.29 87.93,210.46 50.53,320.02" /><path
         id="path88"
         style="fill:#b25b36;fill-opacity:1;fill-rule:nonzero;stroke:none"
         d="m 8349.3339,5694.5147 63.13,-509.8 h 291.83 l 119.11,290.03 -119.11,234.06 -354.96,-14.29" /><path
         id="path90"
         style="fill:#c16544;fill-opacity:1;fill-rule:nonzero;stroke:none"
         d="m 9059.2439,5694.5147 -63.13,-509.8 h -291.82 v 524.09 l 354.95,-14.29" /><path
         id="path92"
         style="fill:#604747;fill-opacity:1;fill-rule:nonzero;stroke:none"
         d="m 8704.2939,5640.9147 h -438.34 v 0 c 0,112.49 91.19,203.68 203.69,203.68 h 234.65 l 129.83,-139.36 -129.83,-64.32" /><path
         id="path94"
         style="fill:#7a6262;fill-opacity:1;fill-rule:nonzero;stroke:none"
         d="m 8704.2939,5640.9147 h 438.33 v 0 c 0,112.49 -91.19,203.68 -203.68,203.68 h -234.65 v -203.68" /><path
         id="path96"
         style="fill:#839e2e;fill-opacity:1;fill-rule:nonzero;stroke:none"
         d="m 8086.8239,2856.2247 v -59.24 h 688.99 v 139.75 h -608.48 c -44.47,0 -80.51,-36.05 -80.51,-80.51" /><path
         id="path98"
         style="fill:#607c1c;fill-opacity:1;fill-rule:nonzero;stroke:none"
         d="m 8226.5739,3346.2247 v 0 l 46.65,-487.48 -46.65,-201.51 v 0 c -77.18,0 -139.75,62.57 -139.75,139.75 v 409.49 c 0,77.18 62.57,139.75 139.75,139.75" /><path
         id="path100"
         style="fill:#839e2e;fill-opacity:1;fill-rule:nonzero;stroke:none"
         d="m 8226.5739,3346.2247 v 0 -688.99 h 59.24 c 44.46,0 80.51,36.05 80.51,80.51 v 468.73 c 0,77.18 -62.57,139.75 -139.75,139.75" /><path
         id="path102"
         style="fill:#607c1c;fill-opacity:1;fill-rule:nonzero;stroke:none"
         d="m 8086.8239,2796.9847 v 0 h 688.99 v -139.75 h -549.24 c -77.18,0 -139.75,62.57 -139.75,139.75" /><path
         id="path104"
         style="fill:#839e2e;fill-opacity:1;fill-rule:nonzero;stroke:none"
         d="m 9464.8039,3306.3847 v -59.24 h -688.99 v 139.75 h 608.48 c 44.46,0 80.51,-36.04 80.51,-80.51" /><path
         id="path106"
         style="fill:#607c1c;fill-opacity:1;fill-rule:nonzero;stroke:none"
         d="m 9325.0539,3796.3847 v 0 l -46.65,-487.48 46.65,-201.51 v 0 c 77.18,0 139.75,62.57 139.75,139.75 v 409.5 c 0,77.18 -62.57,139.74 -139.75,139.74" /><path
         id="path108"
         style="fill:#839e2e;fill-opacity:1;fill-rule:nonzero;stroke:none"
         d="m 9325.0539,3796.3847 v 0 -688.99 h -59.24 c -44.46,0 -80.51,36.05 -80.51,80.51 v 468.74 c 0,77.18 62.57,139.74 139.75,139.74" /><path
         id="path110"
         style="fill:#607c1c;fill-opacity:1;fill-rule:nonzero;stroke:none"
         d="m 9464.8039,3247.1447 v 0 h -688.99 v -139.75 h 549.24 c 77.18,0 139.75,62.57 139.75,139.75" /><path
         id="path112"
         style="fill:#607c1c;fill-opacity:1;fill-rule:nonzero;stroke:none"
         d="m 8775.8139,4224.7047 v 0 l 146.16,-1222.97 -146.16,-859.84 h -189.27 v 1893.54 c 0,104.53 84.74,189.27 189.27,189.27" /><path
         id="path114"
         style="fill:#839e2e;fill-opacity:1;fill-rule:nonzero;stroke:none"
         d="m 8775.8139,4224.7047 v 0 -2082.81 h 189.27 v 1893.54 c 0,104.53 -84.74,189.27 -189.27,189.27" /><path
         id="path116"
         style="fill:#b25b36;fill-opacity:1;fill-rule:nonzero;stroke:none"
         d="m 8340.2639,2044.3147 77.47,-625.54 h 358.08 l 146.16,355.89 -146.16,287.19 -435.55,-17.54" /><path
         id="path118"
         style="fill:#c16544;fill-opacity:1;fill-rule:nonzero;stroke:none"
         d="m 9211.3639,2044.3147 -77.47,-625.54 h -358.08 v 643.08 l 435.55,-17.54" /><path
         id="path120"
         style="fill:#604747;fill-opacity:1;fill-rule:nonzero;stroke:none"
         d="m 8775.8139,1978.5447 h -412.89 c -69.02,0 -124.97,55.95 -124.97,124.97 v 0 c 0,69.01 55.95,124.96 124.97,124.96 h 412.89 l 93.79,-100.68 c 32.68,-35.07 22.35,-91.71 -20.6,-112.99 l -73.19,-36.26" /><path
         id="path122"
         style="fill:#7a6262;fill-opacity:1;fill-rule:nonzero;stroke:none"
         d="m 8775.8139,1978.5447 h 412.89 c 69.02,0 124.96,55.95 124.96,124.97 v 0 c 0,69.01 -55.94,124.96 -124.96,124.96 h -412.89 v -249.93" /><path
         id="path124"
         style="fill:#607c1c;fill-opacity:1;fill-rule:nonzero;stroke:none"
         d="m 8642.3539,2265.4347 h -87.15 c -11.2,0 -20.28,9.08 -20.28,20.28 v 0 c 0,11.2 9.08,20.28 20.28,20.28 h 87.15 v -40.56" /><path
         id="path126"
         style="fill:#607c1c;fill-opacity:1;fill-rule:nonzero;stroke:none"
         d="m 8642.3539,2443.7547 h -87.15 c -11.2,0 -20.28,9.07 -20.28,20.27 v 0 c 0,11.2 9.08,20.28 20.28,20.28 h 87.15 v -40.55" /><path
         id="path128"
         style="fill:#607c1c;fill-opacity:1;fill-rule:nonzero;stroke:none"
         d="m 8642.3539,2978.6847 h -87.15 c -11.2,0 -20.28,9.08 -20.28,20.28 v 0 c 0,11.2 9.08,20.28 20.28,20.28 h 87.15 v -40.56" /><path
         id="path130"
         style="fill:#607c1c;fill-opacity:1;fill-rule:nonzero;stroke:none"
         d="m 8642.3539,3156.9947 h -87.15 c -11.2,0 -20.28,9.08 -20.28,20.28 v 0 c 0,11.2 9.08,20.28 20.28,20.28 h 87.15 v -40.56" /><path
         id="path132"
         style="fill:#607c1c;fill-opacity:1;fill-rule:nonzero;stroke:none"
         d="m 8642.3539,3335.3047 h -87.15 c -11.2,0 -20.28,9.08 -20.28,20.28 v 0 c 0,11.2 9.08,20.28 20.28,20.28 h 87.15 v -40.56" /><path
         id="path134"
         style="fill:#607c1c;fill-opacity:1;fill-rule:nonzero;stroke:none"
         d="m 8642.3539,3513.6147 h -87.15 c -11.2,0 -20.28,9.08 -20.28,20.28 v 0 c 0,11.2 9.08,20.28 20.28,20.28 h 87.15 v -40.56" /><path
         id="path136"
         style="fill:#607c1c;fill-opacity:1;fill-rule:nonzero;stroke:none"
         d="m 8642.3539,3691.9247 h -87.15 c -11.2,0 -20.28,9.08 -20.28,20.28 v 0 c 0,11.2 9.08,20.28 20.28,20.28 h 87.15 v -40.56" /><path
         id="path138"
         style="fill:#607c1c;fill-opacity:1;fill-rule:nonzero;stroke:none"
         d="m 8642.3539,3870.2347 h -87.15 c -11.2,0 -20.28,9.08 -20.28,20.28 v 0 c 0,11.2 9.08,20.28 20.28,20.28 h 87.15 v -40.56" /><path
         id="path140"
         style="fill:#607c1c;fill-opacity:1;fill-rule:nonzero;stroke:none"
         d="m 8642.3539,4048.5447 h -87.15 c -11.2,0 -20.28,9.08 -20.28,20.28 v 0 c 0,11.2 9.08,20.28 20.28,20.28 h 87.15 v -40.56" /><path
         id="path142"
         style="fill:#607c1c;fill-opacity:1;fill-rule:nonzero;stroke:none"
         d="m 9411.0939,3294.7447 h 87.14 c 11.2,0 20.28,9.08 20.28,20.28 v 0 c 0,11.2 -9.08,20.28 -20.28,20.28 h -87.14 v -40.56" /><path
         id="path144"
         style="fill:#607c1c;fill-opacity:1;fill-rule:nonzero;stroke:none"
         d="m 9411.0939,3473.0547 h 87.14 c 11.2,0 20.28,9.08 20.28,20.28 v 0 c 0,11.2 -9.08,20.28 -20.28,20.28 h -87.14 v -40.56" /><path
         id="path146"
         style="fill:#607c1c;fill-opacity:1;fill-rule:nonzero;stroke:none"
         d="m 9411.0939,3651.3647 h 87.14 c 11.2,0 20.28,9.08 20.28,20.28 v 0 c 0,11.2 -9.08,20.28 -20.28,20.28 h -87.14 v -40.56" /><path
         id="path148"
         style="fill:#839e2e;fill-opacity:1;fill-rule:nonzero;stroke:none"
         d="m 8906.6639,2265.4347 h 87.14 c 11.2,0 20.28,9.08 20.28,20.28 v 0 c 0,11.2 -9.08,20.28 -20.28,20.28 h -87.14 v -40.56" /><path
         id="path150"
         style="fill:#839e2e;fill-opacity:1;fill-rule:nonzero;stroke:none"
         d="m 8906.6639,2443.7547 h 87.14 c 11.2,0 20.28,9.07 20.28,20.27 v 0 c 0,11.2 -9.08,20.28 -20.28,20.28 h -87.14 v -40.55" /><path
         id="path152"
         style="fill:#839e2e;fill-opacity:1;fill-rule:nonzero;stroke:none"
         d="m 8906.6639,2622.0647 h 87.14 c 11.2,0 20.28,9.08 20.28,20.28 v 0 c 0,11.19 -9.08,20.27 -20.28,20.27 h -87.14 v -40.55" /><path
         id="path154"
         style="fill:#839e2e;fill-opacity:1;fill-rule:nonzero;stroke:none"
         d="m 8906.6639,2800.3747 h 87.14 c 11.2,0 20.28,9.08 20.28,20.28 v 0 c 0,11.2 -9.08,20.28 -20.28,20.28 h -87.14 v -40.56" /><path
         id="path156"
         style="fill:#839e2e;fill-opacity:1;fill-rule:nonzero;stroke:none"
         d="m 8906.6639,2978.6847 h 87.14 c 11.2,0 20.28,9.08 20.28,20.28 v 0 c 0,11.2 -9.08,20.28 -20.28,20.28 h -87.14 v -40.56" /><path
         id="path158"
         style="fill:#839e2e;fill-opacity:1;fill-rule:nonzero;stroke:none"
         d="m 8906.6639,3513.6147 h 87.14 c 11.2,0 20.28,9.08 20.28,20.28 v 0 c 0,11.2 -9.08,20.28 -20.28,20.28 h -87.14 v -40.56" /><path
         id="path160"
         style="fill:#839e2e;fill-opacity:1;fill-rule:nonzero;stroke:none"
         d="m 8906.6639,3691.9247 h 87.14 c 11.2,0 20.28,9.08 20.28,20.28 v 0 c 0,11.2 -9.08,20.28 -20.28,20.28 h -87.14 v -40.56" /><path
         id="path162"
         style="fill:#839e2e;fill-opacity:1;fill-rule:nonzero;stroke:none"
         d="m 8906.6639,3870.2347 h 87.14 c 11.2,0 20.28,9.08 20.28,20.28 v 0 c 0,11.2 -9.08,20.28 -20.28,20.28 h -87.14 v -40.56" /><path
         id="path164"
         style="fill:#839e2e;fill-opacity:1;fill-rule:nonzero;stroke:none"
         d="m 8906.6639,4048.5447 h 87.14 c 11.2,0 20.28,9.08 20.28,20.28 v 0 c 0,11.2 -9.08,20.28 -20.28,20.28 h -87.14 v -40.56" /><path
         id="path166"
         style="fill:#607c1c;fill-opacity:1;fill-rule:nonzero;stroke:none"
         d="m 8140.5339,2849.9647 h -87.15 c -11.2,0 -20.27,9.08 -20.27,20.28 v 0 c 0,11.2 9.07,20.28 20.27,20.28 h 87.15 v -40.56" /><path
         id="path168"
         style="fill:#607c1c;fill-opacity:1;fill-rule:nonzero;stroke:none"
         d="m 8140.5339,3028.2747 h -87.15 c -11.2,0 -20.27,9.08 -20.27,20.28 v 0 c 0,11.2 9.07,20.28 20.27,20.28 h 87.15 v -40.56" /><path
         id="path170"
         style="fill:#607c1c;fill-opacity:1;fill-rule:nonzero;stroke:none"
         d="m 8140.5339,3206.5847 h -87.15 c -11.2,0 -20.27,9.08 -20.27,20.28 v 0 c 0,11.2 9.07,20.28 20.27,20.28 h 87.15 v -40.56" /><path
         id="path172"
         style="fill:#abbc46;fill-opacity:1;fill-rule:nonzero;stroke:none;stroke-width:0.79612482"
         d="M 1497.942,1933.0711 1275.6189,1165.1749 1164.4418,475.01887 c 134.6356,129.91167 308.1499,610.10113 359.2907,833.68513 51.1408,223.5839 37.7051,443.2525 -25.7905,624.3671" /><path
         id="path174"
         style="fill:#abbc46;fill-opacity:1;fill-rule:nonzero;stroke:none;stroke-width:0.79612482"
         d="M 1497.942,1933.0711 1164.4418,475.01887 c -63.4955,181.12281 -10.2312,692.39683 40.9096,915.98083 51.1408,223.5757 157.9551,412.1597 292.5906,542.0714" /><path
         id="path176"
         style="fill:#839e2e;fill-opacity:1;fill-rule:nonzero;stroke:none;stroke-width:0.79612482"
         d="M 1484.2669,1873.2659 1280.1361,1134.5172 1164.4418,475.01887 c 108.7061,129.85422 262.7231,593.55343 311.7637,807.96053 49.0405,214.4153 48.5386,421.8701 8.0614,590.2865" /><path
         id="path178"
         style="fill:#607c1c;fill-opacity:1;fill-rule:nonzero;stroke:none;stroke-width:0.79612482"
         d="M 1484.2669,1873.2659 1164.4418,475.01887 c -40.4848,168.41647 22.9798,655.51733 72.0203,869.93263 49.0405,214.4071 139.091,398.4602 247.8048,528.3144" /><path
         id="path180"
         style="fill:#abbc46;fill-opacity:1;fill-rule:nonzero;stroke:none;stroke-width:0.79612482"
         d="m 1135.4469,2115.6385 45.3572,-802.0014 -45.3572,-698.53656 C 1033.4973,775.14458 971.61556,1285.3269 971.61556,1515.42 c 0,230.0931 61.88174,440.1662 163.83134,600.2185" /><path
         id="path182"
         style="fill:#abbc46;fill-opacity:1;fill-rule:nonzero;stroke:none;stroke-width:0.79612482"
         d="M 1135.4469,2115.6385 V 561.90301 c 101.9573,160.05225 163.8313,723.42389 163.8313,953.51699 0,230.0931 -61.874,440.1662 -163.8313,600.2185" /><path
         id="path184"
         style="fill:#607c1c;fill-opacity:1;fill-rule:nonzero;stroke:none;stroke-width:0.79612482"
         d="m 1135.4469,2054.085 34.1608,-769.1028 -34.1608,-669.88166 c -76.7691,153.47745 -123.3618,642.72886 -123.3618,863.39066 0,220.6536 46.5927,422.1081 123.3618,575.5938" /><path
         id="path186"
         style="fill:#839e2e;fill-opacity:1;fill-rule:nonzero;stroke:none;stroke-width:0.79612482"
         d="M 1135.4469,2054.085 V 615.10054 c 76.7691,153.47745 123.3696,642.72886 123.3696,863.39066 0,220.6536 -46.6005,422.1081 -123.3696,575.5938" /><path
         id="path188"
         style="fill:#abbc46;fill-opacity:1;fill-rule:nonzero;stroke:none;stroke-width:0.79612482"
         d="m 799.81546,1781.5226 222.33094,-767.9044 111.177,-690.15606 C 998.68786,453.37377 825.16576,933.57153 774.02496,1157.1555 c -51.14079,223.5757 -37.69732,443.2443 25.7905,624.3671" /><path
         id="path190"
         style="fill:#abbc46;fill-opacity:1;fill-rule:nonzero;stroke:none;stroke-width:0.79612482"
         d="M 799.81546,1781.5226 1133.3234,323.46214 c 63.4955,181.12277 10.2312,692.39686 -40.9096,915.98076 -51.1407,223.584 -157.95504,412.168 -292.59834,542.0797" /><path
         id="path192"
         style="fill:#607c1c;fill-opacity:1;fill-rule:nonzero;stroke:none;stroke-width:0.79612482"
         d="M 813.49836,1721.7092 1017.6215,982.96863 1133.3234,323.46214 c -108.706,129.85418 -262.72304,593.56159 -311.76364,807.96876 -49.0482,214.4071 -48.5463,421.8619 -8.0614,590.2783" /><path
         id="path194"
         style="fill:#839e2e;fill-opacity:1;fill-rule:nonzero;stroke:none;stroke-width:0.79612482"
         d="M 813.49836,1721.7092 1133.3234,323.46214 c 40.4849,168.41643 -22.9798,655.52549 -72.0202,869.93266 -49.0405,214.4153 -139.09874,398.4602 -247.80484,528.3144" /><path
         id="path196"
         style="fill:#b25b36;fill-opacity:1;fill-rule:nonzero;stroke:none;stroke-width:0.79612482"
         d="m 973.48426,139.11354 h 184.81114 l 116.0031,226.95752 -138.8516,319.18521 H 868.88606 c -41.5041,-72.93832 -66.0823,-157.9099 -66.0823,-237.24247 0,-132.78451 68.8621,-248.44665 170.6805,-308.90026" /><path
         id="path198"
         style="fill:#c16544;fill-opacity:1;fill-rule:nonzero;stroke:none;stroke-width:0.79612482"
         d="m 1297.4095,139.11354 c 101.8261,60.45361 170.6882,176.11575 170.6882,308.90026 0,79.33257 -24.5859,164.30415 -66.09,237.24247 H 1135.4469 V 139.11354 h 161.9626" /><path
         id="path200"
         style="fill:#bcb5b5;fill-opacity:1;fill-rule:nonzero;stroke:none;stroke-width:0.79612482"
         d="m 807.78426,511.33212 h 327.66264 l 70.53,43.95506 -70.53,66.6344 H 838.38536 c -14.4628,-35.94384 -24.9179,-73.35694 -30.6011,-110.58946" /><path
         id="path202"
         style="fill:#ddcbc7;fill-opacity:1;fill-rule:nonzero;stroke:none;stroke-width:0.79612482"
         d="m 1463.1095,511.33212 h -327.6626 v 110.58946 h 297.0615 c 14.4627,-35.94384 24.9179,-73.35694 30.6011,-110.58946" /><path
         id="path204"
         style="fill:#607c1c;fill-opacity:1;fill-rule:nonzero;stroke:none"
         d="m 10294.364,3291.4647 h 40.22 l 13.64,-982.14 -13.64,-448.2 h -40.22 v 1430.34" /><path
         id="path206"
         style="fill:#839e2e;fill-opacity:1;fill-rule:nonzero;stroke:none"
         d="m 10334.584,3291.4647 h 40.22 v -1430.34 h -40.22 v 1430.34" /><path
         id="path208"
         style="fill:#607c1c;fill-opacity:1;fill-rule:nonzero;stroke:none"
         d="m 10078.624,2119.5547 c 52.62,-68.57 138.62,-96.36 217.69,-78.19 l -83.74,189.67 -153.14,119.03 c -38.02,-71.67 -33.43,-161.93 19.19,-230.51" /><path
         id="path210"
         style="fill:#607c1c;fill-opacity:1;fill-rule:nonzero;stroke:none"
         d="m 10277.124,2271.8747 c 52.62,-68.57 57.21,-158.83 19.19,-230.51 l -236.88,308.7 c 79.07,18.18 165.07,-9.62 217.69,-78.19" /><path
         id="path212"
         style="fill:#607c1c;fill-opacity:1;fill-rule:nonzero;stroke:none"
         d="m 10078.624,2469.5547 c 52.62,-68.57 138.62,-96.36 217.69,-78.19 l -83.74,189.67 -153.14,119.03 c -38.02,-71.67 -33.43,-161.93 19.19,-230.51" /><path
         id="path214"
         style="fill:#607c1c;fill-opacity:1;fill-rule:nonzero;stroke:none"
         d="m 10277.124,2621.8747 c 52.62,-68.57 57.21,-158.83 19.19,-230.51 l -236.88,308.7 c 79.07,18.18 165.07,-9.62 217.69,-78.19" /><path
         id="path216"
         style="fill:#607c1c;fill-opacity:1;fill-rule:nonzero;stroke:none"
         d="m 10078.624,2819.5547 c 52.62,-68.57 138.62,-96.36 217.69,-78.19 l -83.74,189.67 -153.14,119.03 c -38.02,-71.67 -33.43,-161.93 19.19,-230.51" /><path
         id="path218"
         style="fill:#607c1c;fill-opacity:1;fill-rule:nonzero;stroke:none"
         d="m 10277.124,2971.8747 c 52.62,-68.57 57.21,-158.83 19.19,-230.51 l -236.88,308.7 c 79.07,18.18 165.07,-9.62 217.69,-78.19" /><path
         id="path220"
         style="fill:#607c1c;fill-opacity:1;fill-rule:nonzero;stroke:none"
         d="m 10181.914,3410.3547 c 0.25,-105.48 63.08,-196.13 153.24,-237.07 l 59.24,245.99 -60.38,228.88 c -89.96,-41.37 -152.35,-132.32 -152.1,-237.8" /><path
         id="path222"
         style="fill:#839e2e;fill-opacity:1;fill-rule:nonzero;stroke:none"
         d="m 10487.254,3411.0847 c 0.25,-105.48 -62.15,-196.43 -152.1,-237.8 l -1.14,474.87 c 90.16,-40.94 152.99,-131.59 153.24,-237.07" /><path
         id="path224"
         style="fill:#839e2e;fill-opacity:1;fill-rule:nonzero;stroke:none"
         d="m 10577.254,2261.6147 c -52.62,-68.57 -138.62,-96.37 -217.69,-78.19 l 83.74,189.66 153.14,119.04 c 38.02,-71.68 33.43,-161.94 -19.19,-230.51" /><path
         id="path226"
         style="fill:#839e2e;fill-opacity:1;fill-rule:nonzero;stroke:none"
         d="m 10378.754,2413.9347 c -52.62,-68.58 -57.21,-158.84 -19.19,-230.51 l 236.88,308.7 c -79.07,18.17 -165.07,-9.62 -217.69,-78.19" /><path
         id="path228"
         style="fill:#839e2e;fill-opacity:1;fill-rule:nonzero;stroke:none"
         d="m 10577.254,2611.6147 c -52.62,-68.57 -138.62,-96.37 -217.69,-78.19 l 83.74,189.66 153.14,119.04 c 38.02,-71.68 33.43,-161.94 -19.19,-230.51" /><path
         id="path230"
         style="fill:#839e2e;fill-opacity:1;fill-rule:nonzero;stroke:none"
         d="m 10378.754,2763.9347 c -52.62,-68.58 -57.21,-158.84 -19.19,-230.51 l 236.88,308.7 c -79.07,18.17 -165.07,-9.62 -217.69,-78.19" /><path
         id="path232"
         style="fill:#839e2e;fill-opacity:1;fill-rule:nonzero;stroke:none"
         d="m 10577.254,2961.6147 c -52.62,-68.57 -138.62,-96.37 -217.69,-78.19 l 83.74,189.66 153.14,119.04 c 38.02,-71.68 33.43,-161.94 -19.19,-230.51" /><path
         id="path234"
         style="fill:#839e2e;fill-opacity:1;fill-rule:nonzero;stroke:none"
         d="m 10378.754,3113.9347 c -52.62,-68.58 -57.21,-158.84 -19.19,-230.51 l 236.88,308.7 c -79.07,18.17 -165.07,-9.62 -217.69,-78.19" /><path
         id="path236"
         style="fill:#b25b36;fill-opacity:1;fill-rule:nonzero;stroke:none"
         d="m 9826.8439,1918.8947 c -3.27,-22.08 -4.98,-44.64 -4.98,-67.58 0,-133.17 57.02,-253.76 149.25,-341.25 l 363.4701,-21.01 85.89,225.43 -85.89,157.07 -507.7401,47.34" /><path
         id="path238"
         style="fill:#bcb5b5;fill-opacity:1;fill-rule:nonzero;stroke:none"
         d="m 9794.0039,1851.3147 c 0,-16.19 0.91,-32.19 2.64,-47.96 h 537.9401 l 58.59,68.2 -58.59,47.34 h -535.3301 c -3.45,-22.08 -5.25,-44.64 -5.25,-67.58" /><path
         id="path240"
         style="fill:#c16544;fill-opacity:1;fill-rule:nonzero;stroke:none"
         d="m 10842.324,1918.8947 c 3.27,-22.08 4.97,-44.64 4.97,-67.58 0,-133.17 -57.01,-253.76 -149.24,-341.25 l -363.47,-21.01 v 402.48 l 507.74,27.36" /><path
         id="path242"
         style="fill:#ddcbc7;fill-opacity:1;fill-rule:nonzero;stroke:none"
         d="m 10875.154,1851.3147 c 0,-16.19 -0.9,-32.19 -2.64,-47.96 h -537.93 v 115.54 h 535.32 c 3.46,-22.08 5.25,-44.64 5.25,-67.58" /><path
         id="path244"
         style="fill:#994c31;fill-opacity:1;fill-rule:nonzero;stroke:none"
         d="m 10334.584,1510.0647 h -363.8801 l -21.48,-27.28 c -20.42,-25.95 -1.94,-64.01 31.08,-64.01 h 354.2801 l 92.97,45.64 -92.97,45.65" /><path
         id="path246"
         style="fill:#b25b36;fill-opacity:1;fill-rule:nonzero;stroke:none"
         d="m 10334.584,1510.0647 h 363.88 l 21.48,-27.28 c 20.42,-25.95 1.94,-64.01 -31.08,-64.01 h -354.28 v 91.29" /><path
         id="path248"
         style="fill:#839e2e;fill-opacity:1;fill-rule:nonzero;stroke:none"
         d="m 7107.1739,3315.6247 v -1397.5 c 318.26,0 576.26,401.26 576.26,787.17 0,385.9 -258,610.33 -576.26,610.33" /><path
         id="path250"
         style="fill:#607c1c;fill-opacity:1;fill-rule:nonzero;stroke:none"
         d="m 7107.1739,3315.6247 v -1397.5 c -318.25,0 -576.25,401.26 -576.25,787.17 0,385.9 258,610.33 576.25,610.33" /><path
         id="path252"
         style="fill:#abbc46;fill-opacity:1;fill-rule:nonzero;stroke:none"
         d="m 7107.1739,3315.6247 -70.97,-838.5 70.97,-559 c 192.28,0 348.15,401.26 348.15,787.17 0,385.9 -155.87,610.33 -348.15,610.33" /><path
         id="path254"
         style="fill:#839e2e;fill-opacity:1;fill-rule:nonzero;stroke:none"
         d="m 7107.1739,3315.6247 v -1397.5 c -192.27,0 -348.14,401.26 -348.14,787.17 0,385.9 155.87,610.33 348.14,610.33" /><path
         id="path256"
         style="fill:#607c1c;fill-opacity:1;fill-rule:nonzero;stroke:none"
         d="m 6744.6739,3141.6547 h -72.53 c -14.18,0 -25.67,11.49 -25.67,25.66 v 0 c 0,14.18 11.49,25.67 25.67,25.67 h 72.53 v -51.33" /><path
         id="path258"
         style="fill:#607c1c;fill-opacity:1;fill-rule:nonzero;stroke:none"
         d="m 6605.6039,2913.4847 h -72.53 c -14.17,0 -25.67,11.5 -25.67,25.67 v 0 c 0,14.18 11.5,25.67 25.67,25.67 h 72.53 v -51.34" /><path
         id="path260"
         style="fill:#607c1c;fill-opacity:1;fill-rule:nonzero;stroke:none"
         d="m 6556.5039,2685.3247 h -72.53 c -14.17,0 -25.67,11.49 -25.67,25.67 v 0 c 0,14.18 11.5,25.67 25.67,25.67 h 72.53 v -51.34" /><path
         id="path262"
         style="fill:#607c1c;fill-opacity:1;fill-rule:nonzero;stroke:none"
         d="m 6605.6039,2457.1647 h -72.53 c -14.17,0 -25.67,11.49 -25.67,25.67 v 0 c 0,14.17 11.5,25.66 25.67,25.66 h 72.53 v -51.33" /><path
         id="path264"
         style="fill:#607c1c;fill-opacity:1;fill-rule:nonzero;stroke:none"
         d="m 6685.8639,2228.9947 h -72.53 c -14.17,0 -25.66,11.5 -25.66,25.67 v 0 c 0,14.18 11.49,25.67 25.66,25.67 h 72.53 v -51.34" /><path
         id="path266"
         style="fill:#607c1c;fill-opacity:1;fill-rule:nonzero;stroke:none"
         d="m 6868.1539,2000.8347 h -79.64 c -10.25,0 -18.56,8.31 -18.56,18.57 v 14.2 c 0,10.26 8.31,18.57 18.56,18.57 h 79.64 v -51.34" /><path
         id="path268"
         style="fill:#839e2e;fill-opacity:1;fill-rule:nonzero;stroke:none"
         d="m 7471.2539,3141.6547 h 72.53 c 14.18,0 25.67,11.49 25.67,25.66 v 0 c 0,14.18 -11.49,25.67 -25.67,25.67 h -72.53 v -51.33" /><path
         id="path270"
         style="fill:#839e2e;fill-opacity:1;fill-rule:nonzero;stroke:none"
         d="m 7610.3239,2913.4847 h 72.53 c 14.17,0 25.66,11.5 25.66,25.67 v 0 c 0,14.18 -11.49,25.67 -25.66,25.67 h -72.53 v -51.34" /><path
         id="path272"
         style="fill:#839e2e;fill-opacity:1;fill-rule:nonzero;stroke:none"
         d="m 7659.4239,2685.3247 h 72.53 c 14.17,0 25.66,11.49 25.66,25.67 v 0 c 0,14.18 -11.49,25.67 -25.66,25.67 h -72.53 v -51.34" /><path
         id="path274"
         style="fill:#839e2e;fill-opacity:1;fill-rule:nonzero;stroke:none"
         d="m 7610.3239,2457.1647 h 72.53 c 14.17,0 25.66,11.49 25.66,25.67 v 0 c 0,14.17 -11.49,25.66 -25.66,25.66 h -72.53 v -51.33" /><path
         id="path276"
         style="fill:#839e2e;fill-opacity:1;fill-rule:nonzero;stroke:none"
         d="m 7530.0539,2228.9947 h 72.53 c 14.18,0 25.67,11.5 25.67,25.67 v 0 c 0,14.18 -11.49,25.67 -25.67,25.67 h -72.53 v -51.34" /><path
         id="path278"
         style="fill:#839e2e;fill-opacity:1;fill-rule:nonzero;stroke:none"
         d="m 7347.7739,2000.8347 h 72.53 c 14.18,0 25.67,11.49 25.67,25.67 v 0 c 0,14.18 -11.49,25.67 -25.67,25.67 h -72.53 v -51.34" /><path
         id="path280"
         style="fill:#839e2e;fill-opacity:1;fill-rule:nonzero;stroke:none"
         d="m 6896.0039,3141.6547 h -72.53 c -14.18,0 -25.67,11.49 -25.67,25.66 v 0 c 0,14.18 11.49,25.67 25.67,25.67 h 72.53 v -51.33" /><path
         id="path282"
         style="fill:#839e2e;fill-opacity:1;fill-rule:nonzero;stroke:none"
         d="m 6808.1339,2913.4847 h -72.53 c -14.17,0 -25.67,11.5 -25.67,25.67 v 0 c 0,14.18 11.5,25.67 25.67,25.67 h 72.53 v -51.34" /><path
         id="path284"
         style="fill:#839e2e;fill-opacity:1;fill-rule:nonzero;stroke:none"
         d="m 6776.0439,2685.3247 h -72.53 c -14.17,0 -25.67,11.49 -25.67,25.67 v 0 c 0,14.18 11.5,25.67 25.67,25.67 h 72.53 v -51.34" /><path
         id="path286"
         style="fill:#839e2e;fill-opacity:1;fill-rule:nonzero;stroke:none"
         d="m 6808.1339,2457.1647 h -72.53 c -14.17,0 -25.67,11.49 -25.67,25.67 v 0 c 0,14.17 11.5,25.66 25.67,25.66 h 72.53 v -51.33" /><path
         id="path288"
         style="fill:#839e2e;fill-opacity:1;fill-rule:nonzero;stroke:none"
         d="m 6868.1539,2228.9947 h -72.53 c -14.18,0 -25.67,11.5 -25.67,25.67 v 0 c 0,14.18 11.49,25.67 25.67,25.67 h 72.53 v -51.34" /><path
         id="path290"
         style="fill:#839e2e;fill-opacity:1;fill-rule:nonzero;stroke:none"
         d="m 6982.2039,2000.8347 h -72.53 c -14.17,0 -25.66,11.49 -25.66,25.67 v 0 c 0,14.18 11.49,25.67 25.66,25.67 h 72.53 v -51.34" /><path
         id="path292"
         style="fill:#abbc46;fill-opacity:1;fill-rule:nonzero;stroke:none"
         d="m 7316.9039,3141.6547 h 72.53 c 14.17,0 25.67,11.49 25.67,25.66 v 0 c 0,14.18 -11.5,25.67 -25.67,25.67 h -72.53 v -51.33" /><path
         id="path294"
         style="fill:#abbc46;fill-opacity:1;fill-rule:nonzero;stroke:none"
         d="m 7404.7639,2913.4847 h 72.53 c 14.18,0 25.67,11.5 25.67,25.67 v 0 c 0,14.18 -11.49,25.67 -25.67,25.67 h -72.53 v -51.34" /><path
         id="path296"
         style="fill:#abbc46;fill-opacity:1;fill-rule:nonzero;stroke:none"
         d="m 7436.8539,2685.3247 h 72.53 c 14.18,0 25.67,11.49 25.67,25.67 v 0 c 0,14.18 -11.49,25.67 -25.67,25.67 h -72.53 v -51.34" /><path
         id="path298"
         style="fill:#abbc46;fill-opacity:1;fill-rule:nonzero;stroke:none"
         d="m 7404.7639,2457.1647 h 72.53 c 14.18,0 25.67,11.49 25.67,25.67 v 0 c 0,14.17 -11.49,25.66 -25.67,25.66 h -72.53 v -51.33" /><path
         id="path300"
         style="fill:#abbc46;fill-opacity:1;fill-rule:nonzero;stroke:none"
         d="m 7344.7539,2228.9947 h 72.53 c 14.17,0 25.66,11.5 25.66,25.67 v 0 c 0,14.18 -11.49,25.67 -25.66,25.67 h -72.53 v -51.34" /><path
         id="path302"
         style="fill:#abbc46;fill-opacity:1;fill-rule:nonzero;stroke:none"
         d="m 7230.6939,2000.8347 h 79.64 c 10.25,0 18.56,8.31 18.56,18.57 v 14.2 c 0,10.26 -8.31,18.57 -18.56,18.57 h -79.64 v -51.34" /><path
         id="path304"
         style="fill:#b25b36;fill-opacity:1;fill-rule:nonzero;stroke:none"
         d="m 6652.2339,1873.4047 108.15,-454.63 h 350.91 l 98.89,215.32 -98.89,197.38 -459.06,41.93" /><path
         id="path306"
         style="fill:#b25b36;fill-opacity:1;fill-rule:nonzero;stroke:none"
         d="m 7111.2939,1941.8247 -249.39,-37.52 -242.77,37.52 c -25.6,0 -46.35,20.75 -46.35,46.35 v 17.65 c 0,25.6 20.75,46.35 46.35,46.35 h 492.16 l 90.33,-54.44 -90.33,-55.91" /><path
         id="path308"
         style="fill:#604747;fill-opacity:1;fill-rule:nonzero;stroke:none"
         d="m 7111.2939,1831.4747 h -483.33 c -30.47,0 -55.18,24.7 -55.18,55.17 v 0 c 0,30.48 24.71,55.18 55.18,55.18 h 483.33 l 90.33,-45.34 -90.33,-65.01" /><path
         id="path310"
         style="fill:#c16544;fill-opacity:1;fill-rule:nonzero;stroke:none"
         d="m 7570.3439,1873.4047 -108.14,-454.63 h -350.91 v 412.7 l 459.05,41.93" /><path
         id="path312"
         style="fill:#c16544;fill-opacity:1;fill-rule:nonzero;stroke:none"
         d="m 7111.2939,1941.8247 249.39,-37.52 242.76,37.52 c 25.6,0 46.35,20.75 46.35,46.35 v 17.65 c 0,25.6 -20.75,46.35 -46.35,46.35 h -492.15 v -110.35" /><path
         id="path314"
         style="fill:#7a6262;fill-opacity:1;fill-rule:nonzero;stroke:none"
         d="m 7111.2939,1831.4747 h 483.33 c 30.47,0 55.17,24.7 55.17,55.17 v 0 c 0,30.48 -24.7,55.18 -55.17,55.18 h -483.33 v -110.35" /><path
         id="path316"
         style="fill:#604747;fill-opacity:1;fill-rule:nonzero;stroke:none"
         d="m 5802.8839,4465.9447 h -310.28 v 516.2 h 310.28 v -516.2" /><path
         id="path318"
         style="fill:#604747;fill-opacity:1;fill-rule:nonzero;stroke:none"
         d="m 10507.674,4465.9447 h -310.28 v 516.2 h 310.28 v -516.2" /><path
         id="path320"
         style="fill:#7a6262;fill-opacity:1;fill-rule:nonzero;stroke:none"
         d="M 11131.394,4919.9247 H 4874.4949 v 299.35 h 6256.8991 v -299.35" /><path
         id="path322"
         style="fill:#604747;fill-opacity:1;fill-rule:nonzero;stroke:none"
         d="m 5802.8839,680.12469 h -310.28 v 516.20001 h 310.28 V 680.12469" /><path
         id="path324"
         style="fill:#604747;fill-opacity:1;fill-rule:nonzero;stroke:none"
         d="m 10507.674,680.12469 h -310.28 v 516.20001 h 310.28 V 680.12469" /><path
         id="path326"
         style="fill:#7a6262;fill-opacity:1;fill-rule:nonzero;stroke:none"
         d="M 11131.394,1134.1047 H 4874.4949 v 299.36 h 6256.8991 v -299.36" /><path
         id="path328"
         style="fill:#7a6262;fill-opacity:1;fill-rule:nonzero;stroke:none"
         d="m 6812.1839,-112.25531 c 0,-7.031 1.09,-13.011 3.27,-17.949 2.19,-4.941 5.18,-8.66 8.98,-11.152 3.8,-2.508 7.95,-3.77 12.44,-3.77 4.56,0 8.72,1.192 12.49,3.582 3.77,2.36 6.78,6.008 9.02,10.899 2.25,4.922 3.37,11.058 3.37,18.39 0,6.911 -1.12,12.840005 -3.37,17.833005 -2.24,4.957 -5.28,8.75 -9.11,11.386 -3.84,2.621 -8.03,3.93 -12.59,3.93 -4.74,0 -8.99,-1.348 -12.73,-4.039 -3.73,-2.68 -6.63,-6.539 -8.68,-11.578 -2.07,-5.043 -3.09,-10.883005 -3.09,-17.532005 z m 51,-38.078 v 2.567 c -3.48,-3.989 -6.92,-7.239 -10.3,-9.727 -3.39,-2.512 -7.07,-4.422 -11.03,-5.703 -3.95,-1.32 -8.27,-1.961 -12.95,-1.961 -6.22,0 -11.96,1.313 -17.25,3.942 -5.28,2.621 -9.86,6.382 -13.72,11.261 -3.87,4.867 -6.79,10.59 -8.79,17.188 -1.99,6.59 -2.99,13.711 -2.99,21.359 0,16.211005 3.96,28.863005 11.88,37.910005 7.91,9.051 18.33,13.582 31.25,13.582 7.46,0 13.77,-1.289 18.89,-3.84 5.14,-2.57 10.14,-6.519 15.01,-11.832 v 38.274 c 0,5.328 1.06,9.34 3.19,12.058 2.11,2.731 5.13,4.09 9.06,4.09 3.93,0 6.95,-1.25 9.07,-3.75 2.13,-2.511 3.18,-6.179 3.18,-11.07 V -150.33331 c 0,-4.941 -1.13,-8.652 -3.41,-11.121 -2.28,-2.461 -5.22,-3.703 -8.84,-3.703 -3.54,0 -6.47,1.281 -8.79,3.844 -2.3,2.578 -3.46,6.226 -3.46,10.98" /><path
         id="path330"
         style="fill:#7a6262;fill-opacity:1;fill-rule:nonzero;stroke:none"
         d="m 6926.8139,-104.08331 h 47.01 c -0.62,8.860005 -3.03,15.500005 -7.17,19.899005 -4.15,4.398 -9.6,6.597 -16.38,6.597 -6.46,0 -11.77,-2.226 -15.91,-6.687 -4.15,-4.461 -6.66,-11.07 -7.55,-19.809005 z m 50.71,-14.73 h -50.71 c 0.06,-5.883 1.24,-11.07 3.56,-15.57 2.31,-4.5 5.38,-7.891 9.21,-10.161 3.83,-2.293 8.06,-3.41 12.68,-3.41 3.1,0 5.93,0.348 8.5,1.071 2.57,0.75 5.05,1.867 7.46,3.429 2.41,1.539 4.62,3.211 6.65,4.989 2.02,1.781 4.64,4.191 7.88,7.23 1.33,1.129 3.23,1.711 5.71,1.711 2.65,0 4.8,-0.742 6.44,-2.199 1.65,-1.461 2.48,-3.512 2.48,-6.172 0,-2.348 -0.93,-5.07 -2.75,-8.211 -1.85,-3.141 -4.62,-6.149 -8.32,-9.027 -3.71,-2.883 -8.35,-5.262 -13.97,-7.172 -5.59,-1.899 -12.04,-2.852 -19.32,-2.852 -16.65,0 -29.6,4.762 -38.85,14.254 -9.24,9.488 -13.86,22.379 -13.86,38.648 0,7.668 1.13,14.782005 3.42,21.321005 2.28,6.558 5.61,12.179 9.97,16.871 4.37,4.68 9.75,8.269 16.15,10.777 6.39,2.5 13.48,3.742 21.27,3.742 10.13,0 18.82,-2.121 26.06,-6.41 7.26,-4.269 12.7,-9.789 16.3,-16.562 3.6,-6.778 5.42,-13.688 5.42,-20.699005 0,-6.54 -1.87,-10.758 -5.6,-12.7 -3.74,-1.918 -9,-2.898 -15.78,-2.898" /><path
         id="path332"
         style="fill:#7a6262;fill-opacity:1;fill-rule:nonzero;stroke:none"
         d="m 7095.6739,-131.23531 c 0,-7.16 -1.74,-13.289 -5.23,-18.391 -3.47,-5.097 -8.62,-8.968 -15.43,-11.589 -6.8,-2.629 -15.08,-3.942 -24.83,-3.942 -9.31,0 -17.29,1.434 -23.94,4.281 -6.65,2.84 -11.56,6.422 -14.72,10.672 -3.17,4.289 -4.75,8.571 -4.75,12.879 0,2.86 1.01,5.289 3.04,7.309 2.03,2.019 4.59,3.043 7.7,3.043 2.71,0 4.8,-0.672 6.26,-2 1.46,-1.321 2.86,-3.203 4.17,-5.59 2.66,-4.641 5.85,-8.07 9.56,-10.363 3.7,-2.278 8.74,-3.418 15.15,-3.418 5.19,0 9.45,1.16 12.77,3.468 3.32,2.321 4.98,4.961 4.98,7.942 0,4.558 -1.71,7.871 -5.17,9.961 -3.45,2.09 -9.14,4.09 -17.05,5.988 -8.93,2.211 -16.19,4.539 -21.8,6.98 -5.6,2.43 -10.08,5.649 -13.44,9.629 -3.35,4 -5.03,8.911005 -5.03,14.731005 0,5.191 1.55,10.101 4.65,14.73 3.11,4.61 7.68,8.301 13.74,11.051 6.03,2.77 13.33,4.141 21.88,4.141 6.71,0 12.75,-0.692 18.09,-2.102 5.36,-1.371 9.83,-3.262 13.4,-5.601 3.58,-2.34 6.3,-4.93 8.16,-7.778 1.87,-2.851 2.8,-5.633 2.8,-8.371 0,-2.961 -1,-5.41 -2.98,-7.308 -2,-1.883 -4.83,-2.852 -8.51,-2.852 -2.66,0 -4.92,0.762 -6.79,2.289 -1.86,1.52 -4,3.789 -6.41,6.832 -1.96,2.527 -4.26,4.559 -6.93,6.078 -2.66,1.531 -6.27,2.281 -10.83,2.281 -4.69,0 -8.58,-0.992 -11.68,-3 -3.1,-1.98 -4.65,-4.46 -4.65,-7.441 0,-2.726 1.13,-4.957 3.41,-6.699 2.28,-1.75 5.35,-3.188 9.22,-4.328 3.86,-1.133 9.17,-2.520005 15.96,-4.172005 8.03,-1.969 14.6,-4.309 19.7,-7.031 5.09,-2.707 8.96,-5.93 11.6,-9.649 2.62,-3.699 3.93,-7.918 3.93,-12.66" /><path
         id="path334"
         style="fill:#7a6262;fill-opacity:1;fill-rule:nonzero;stroke:none"
         d="m 7134.9839,-74.446305 v -74.937005 c 0,-5.192 -1.23,-9.133 -3.7,-11.782 -2.48,-2.66 -5.6,-3.992 -9.41,-3.992 -3.8,0 -6.89,1.363 -9.26,4.082 -2.38,2.731 -3.56,6.629 -3.56,11.692 v 74.179005 c 0,5.117 1.18,8.989 3.56,11.59 2.37,2.59 5.46,3.891 9.26,3.891 3.81,0 6.93,-1.301 9.41,-3.891 2.47,-2.601 3.7,-6.219 3.7,-10.832 z m -12.82,26.77 c -3.61,0 -6.7,1.121 -9.26,3.332 -2.56,2.211 -3.85,5.339 -3.85,9.41 0,3.679 1.32,6.691 3.94,9.07 2.63,2.379 5.69,3.559 9.17,3.559 3.36,0 6.33,-1.071 8.92,-3.231 2.6,-2.16 3.9,-5.277 3.9,-9.398 0,-4 -1.27,-7.11 -3.8,-9.36 -2.53,-2.242 -5.54,-3.382 -9.02,-3.382" /><path
         id="path336"
         style="fill:#7a6262;fill-opacity:1;fill-rule:nonzero;stroke:none"
         d="m 7173.4439,-111.58331 c 0,-10.511 2.29,-18.461 6.88,-23.843 4.59,-5.387 10.53,-8.079 17.81,-8.079 4.31,0 8.37,1.161 12.2,3.469 3.84,2.313 6.95,5.801 9.37,10.449 2.39,4.661 3.61,10.301 3.61,16.954 0,10.57 -2.33,18.808005 -6.99,24.687005 -4.66,5.891 -10.78,8.84 -18.38,8.84 -7.41,0 -13.35,-2.816 -17.8,-8.457 -4.47,-5.621 -6.7,-13.641005 -6.7,-24.020005 z m 75.13,32.860005 v -75.313005 c 0,-8.621 -0.92,-16.027 -2.76,-22.238 -1.83,-6.191 -4.78,-11.332 -8.83,-15.379 -4.06,-4.043 -9.36,-7.062 -15.91,-9.019 -6.55,-1.973 -14.7,-2.942 -24.46,-2.942 -8.93,0 -16.9,1.25 -23.93,3.75 -7.03,2.508 -12.44,5.731 -16.25,9.68 -3.79,3.961 -5.7,8.031 -5.7,12.211 0,3.16 1.08,5.75 3.24,7.73 2.15,2.008 4.75,2.996 7.78,2.996 3.8,0 7.13,-1.679 9.98,-5.027 1.38,-1.711 2.83,-3.441 4.31,-5.18 1.49,-1.75 3.15,-3.23 4.95,-4.468 1.8,-1.231 3.97,-2.141 6.5,-2.754 2.53,-0.59 5.45,-0.899 8.74,-0.899 6.71,0 11.92,0.93 15.63,2.809 3.71,1.863 6.3,4.48 7.79,7.84 1.49,3.343 2.36,6.929 2.61,10.773 0.25,3.84 0.44,9.988 0.57,18.481 -4,-5.583 -8.59,-9.833 -13.83,-12.743 -5.22,-2.91 -11.44,-4.359 -18.65,-4.359 -8.68,0 -16.26,2.211 -22.76,6.648 -6.48,4.43 -11.47,10.629 -14.95,18.61 -3.49,7.992 -5.22,17.191 -5.22,27.64 0,7.782 1.06,14.821005 3.18,21.082005 2.12,6.278 5.15,11.559 9.07,15.868 3.92,4.312 8.45,7.55 13.58,9.742 5.12,2.168 10.76,3.269 16.91,3.269 7.33,0 13.7,-1.422 19.09,-4.218 5.37,-2.832 10.38,-7.25 15,-13.262 v 3.519 c 0,4.493 1.11,7.973 3.32,10.45 2.22,2.461 5.08,3.703 8.56,3.703 5,0 8.32,-1.641 9.96,-4.891 1.65,-3.262 2.48,-7.973 2.48,-14.109" /><path
         id="path338"
         style="fill:#7a6262;fill-opacity:1;fill-rule:nonzero;stroke:none"
         d="m 7289.7839,-74.063305 v -3.141 c 4.55,6.02 9.54,10.43 14.96,13.25 5.41,2.821 11.63,4.231 18.66,4.231 6.84,0 12.95,-1.492 18.33,-4.473 5.38,-2.98 9.41,-7.187 12.06,-12.617 1.72,-3.172 2.82,-6.602 3.32,-10.262 0.51,-3.68 0.78,-8.359 0.78,-14.058005 v -48.25 c 0,-5.192 -1.2,-9.133 -3.57,-11.782 -2.38,-2.66 -5.46,-3.992 -9.26,-3.992 -3.87,0 -7,1.363 -9.41,4.082 -2.41,2.731 -3.6,6.629 -3.6,11.692 v 43.218 c 0,8.539005 -1.2,15.082005 -3.57,19.610005 -2.38,4.519 -7.1,6.789 -14.2,6.789 -4.62,0 -8.83,-1.367 -12.63,-4.129 -3.8,-2.758 -6.59,-6.551 -8.36,-11.36 -1.26,-3.859 -1.9,-11.070005 -1.9,-21.648005 v -32.48 c 0,-5.25 -1.22,-9.211 -3.65,-11.832 -2.44,-2.629 -5.59,-3.942 -9.45,-3.942 -3.74,0 -6.81,1.363 -9.22,4.082 -2.4,2.731 -3.61,6.629 -3.61,11.692 v 74.937005 c 0,4.941 1.08,8.633 3.23,11.07 2.15,2.43 5.1,3.653 8.83,3.653 2.28,0 4.34,-0.543 6.19,-1.621 1.82,-1.082 3.3,-2.692 4.41,-4.832 1.11,-2.161 1.66,-4.797 1.66,-7.887" /><path
         id="path340"
         style="fill:#7a6262;fill-opacity:1;fill-rule:nonzero;stroke:none"
         d="m 7396.8139,-104.08331 h 47.01 c -0.63,8.860005 -3.02,15.500005 -7.17,19.899005 -4.15,4.398 -9.6,6.597 -16.38,6.597 -6.46,0 -11.77,-2.226 -15.92,-6.687 -4.15,-4.461 -6.65,-11.07 -7.54,-19.809005 z m 50.71,-14.73 h -50.71 c 0.07,-5.883 1.25,-11.07 3.57,-15.57 2.3,-4.5 5.37,-7.891 9.21,-10.161 3.82,-2.293 8.05,-3.41 12.67,-3.41 3.11,0 5.94,0.348 8.51,1.071 2.55,0.75 5.04,1.867 7.46,3.429 2.39,1.539 4.61,3.211 6.65,4.989 2.01,1.781 4.64,4.191 7.87,7.23 1.33,1.129 3.23,1.711 5.7,1.711 2.66,0 4.82,-0.742 6.46,-2.199 1.65,-1.461 2.47,-3.512 2.47,-6.172 0,-2.348 -0.92,-5.07 -2.76,-8.211 -1.84,-3.141 -4.61,-6.149 -8.31,-9.027 -3.71,-2.883 -8.35,-5.262 -13.96,-7.172 -5.6,-1.899 -12.05,-2.852 -19.33,-2.852 -16.65,0 -29.6,4.762 -38.85,14.254 -9.23,9.488 -13.86,22.379 -13.86,38.648 0,7.668 1.14,14.782005 3.42,21.321005 2.28,6.558 5.61,12.179 9.98,16.871 4.36,4.68 9.75,8.269 16.14,10.777 6.39,2.5 13.49,3.742 21.28,3.742 10.12,0 18.81,-2.121 26.06,-6.41 7.25,-4.269 12.68,-9.789 16.3,-16.562 3.6,-6.778 5.41,-13.688 5.41,-20.699005 0,-6.54 -1.86,-10.758 -5.6,-12.7 -3.74,-1.918 -8.99,-2.898 -15.78,-2.898" /><path
         id="path342"
         style="fill:#7a6262;fill-opacity:1;fill-rule:nonzero;stroke:none"
         d="m 7502.2339,-112.25531 c 0,-7.031 1.08,-13.011 3.27,-17.949 2.18,-4.941 5.17,-8.66 8.98,-11.152 3.8,-2.508 7.94,-3.77 12.43,-3.77 4.57,0 8.73,1.192 12.49,3.582 3.77,2.36 6.79,6.008 9.03,10.899 2.25,4.922 3.37,11.058 3.37,18.39 0,6.911 -1.12,12.840005 -3.37,17.833005 -2.24,4.957 -5.29,8.75 -9.12,11.386 -3.84,2.621 -8.03,3.93 -12.59,3.93 -4.74,0 -8.99,-1.348 -12.72,-4.039 -3.73,-2.68 -6.63,-6.539 -8.69,-11.578 -2.06,-5.043 -3.08,-10.883005 -3.08,-17.532005 z m 50.99,-38.078 v 2.567 c -3.48,-3.989 -6.91,-7.239 -10.3,-9.727 -3.39,-2.512 -7.06,-4.422 -11.02,-5.703 -3.95,-1.32 -8.27,-1.961 -12.96,-1.961 -6.21,0 -11.95,1.313 -17.24,3.942 -5.28,2.621 -9.86,6.382 -13.72,11.261 -3.87,4.867 -6.79,10.59 -8.79,17.188 -1.99,6.59 -2.99,13.711 -2.99,21.359 0,16.211005 3.96,28.863005 11.87,37.910005 7.92,9.051 18.34,13.582 31.25,13.582 7.47,0 13.78,-1.289 18.9,-3.84 5.13,-2.57 10.13,-6.519 15,-11.832 v 38.274 c 0,5.328 1.07,9.34 3.19,12.058 2.11,2.731 5.15,4.09 9.07,4.09 3.92,0 6.95,-1.25 9.07,-3.75 2.12,-2.511 3.18,-6.179 3.18,-11.07 V -150.33331 c 0,-4.941 -1.13,-8.652 -3.41,-11.121 -2.28,-2.461 -5.22,-3.703 -8.84,-3.703 -3.54,0 -6.47,1.281 -8.79,3.844 -2.31,2.578 -3.47,6.226 -3.47,10.98" /><path
         id="path344"
         style="fill:#7a6262;fill-opacity:1;fill-rule:nonzero;stroke:none"
         d="m 7660.4439,-113.01631 c 0,-10.321 2.36,-18.239 7.07,-23.778 4.72,-5.55 10.91,-8.332 18.57,-8.332 6.52,0 12.15,2.832 16.86,8.512 4.72,5.668 7.07,13.789 7.07,24.359 0,6.84 -0.97,12.739005 -2.94,17.668005 -1.96,4.942 -4.74,8.762 -8.35,11.442 -3.61,2.691 -7.83,4.039 -12.64,4.039 -4.93,0 -9.34,-1.348 -13.2,-4.039 -3.86,-2.68 -6.9,-6.578 -9.12,-11.68 -2.21,-5.078 -3.32,-11.160005 -3.32,-18.191005 z m -1.24,77.031005 v -39.602 c 4.88,5.063 9.85,8.954 14.92,11.633 5.06,2.688 11.33,4.039 18.8,4.039 8.62,0 16.16,-2.039 22.66,-6.121 6.48,-4.097 11.51,-10.019 15.1,-17.769 3.57,-7.739 5.37,-16.950005 5.37,-27.602005 0,-7.848 -1,-15.039 -2.99,-21.598 -2,-6.55 -4.9,-12.238 -8.7,-17.039 -3.8,-4.812 -8.4,-8.55 -13.81,-11.171 -5.42,-2.629 -11.39,-3.942 -17.91,-3.942 -3.99,0 -7.75,0.473 -11.25,1.434 -3.52,0.949 -6.52,2.187 -8.98,3.75 -2.46,1.539 -4.57,3.136 -6.32,4.789 -1.74,1.64 -4.04,4.121 -6.89,7.418 v -2.567 c 0,-4.882 -1.17,-8.574 -3.51,-11.082 -2.34,-2.5 -5.31,-3.742 -8.93,-3.742 -3.67,0 -6.6,1.242 -8.78,3.742 -2.19,2.508 -3.28,6.2 -3.28,11.082 v 113.219005 c 0,5.25 1.06,9.231 3.18,11.91 2.12,2.688 5.09,4.039 8.88,4.039 4,0 7.06,-1.281 9.22,-3.84 2.14,-2.582 3.22,-6.218 3.22,-10.98" /><path
         id="path346"
         style="fill:#7a6262;fill-opacity:1;fill-rule:nonzero;stroke:none"
         d="m 7769.6639,-168.38331 2.38,5.796 -31.92,80.352005 c -1.96,4.609 -2.95,7.98 -2.95,10.07 0,2.219 0.58,4.27 1.72,6.16 1.14,1.911 2.7,3.43 4.69,4.559 2,1.16 4.08,1.723 6.23,1.723 3.73,0 6.55,-1.192 8.46,-3.563 1.9,-2.379 3.57,-5.769 5.03,-10.211 l 21.94,-63.828005 20.8,59.371005 c 1.64,4.789 3.13,8.571 4.46,11.301 1.33,2.719 2.74,4.559 4.23,5.5 1.48,0.949 3.59,1.43 6.31,1.43 1.98,0 3.85,-0.52 5.66,-1.571 1.8,-1.05 3.19,-2.449 4.17,-4.23 0.98,-1.77 1.48,-3.629 1.48,-5.59 -0.26,-1.211 -0.66,-2.91 -1.24,-5.141 -0.57,-2.21 -1.26,-4.468 -2.08,-6.742 l -33.82,-88.519005 c -2.92,-7.789 -5.76,-13.887 -8.55,-18.328 -2.79,-4.43 -6.47,-7.852 -11.06,-10.211 -4.6,-2.379 -10.79,-3.559 -18.57,-3.559 -7.6,0 -13.3,0.82 -17.09,2.461 -3.81,1.66 -5.7,4.66 -5.7,9.027 0,2.973 0.89,5.27 2.71,6.883 1.79,1.617 4.48,2.438 8.01,2.438 1.4,0 2.76,-0.2 4.09,-0.59 1.65,-0.371 3.07,-0.57 4.27,-0.57 2.97,0 5.32,0.441 7.04,1.339 1.7,0.879 3.23,2.411 4.6,4.61 1.36,2.172 2.93,5.39 4.7,9.633" /><path
         id="path348"
         style="fill:#7a6262;fill-opacity:1;fill-rule:nonzero;stroke:none"
         d="m 8145.2939,-61.965305 h 6.18 v 7.781 c 0,8.14 1,14.57 3.07,19.371 2.04,4.789 5.56,8.269 10.47,10.449 4.9,2.168 11.63,3.27 20.16,3.27 15.2,0 22.73,-3.68 22.73,-11.153 0,-2.379 -0.79,-4.437 -2.4,-6.148 -1.55,-1.692 -3.43,-2.559 -5.58,-2.559 -1,0 -2.78,0.188 -5.27,0.598 -2.38,0.332 -4.53,0.551 -6.23,0.551 -4.68,0 -7.67,-1.399 -9.06,-4.149 -1.27,-2.75 -1.95,-6.691 -1.95,-11.84 v -6.171 h 6.33 c 9.91,0 14.81,-2.969 14.81,-8.961 0,-4.188 -1.27,-6.899 -3.92,-8.047 -2.62,-1.141 -6.24,-1.699 -10.89,-1.699 h -6.33 v -68.723005 c 0,-5.098 -1.2,-9 -3.69,-11.68 -2.41,-2.719 -5.54,-4.058 -9.43,-4.058 -3.67,0 -6.7,1.339 -9.17,4.058 -2.45,2.68 -3.65,6.582 -3.65,11.68 v 68.723005 h -7.14 c -3.88,0 -6.82,0.828 -8.93,2.609 -2.09,1.707 -3.15,4 -3.15,6.777 0,6.242 4.35,9.321 13.04,9.321" /><path
         id="path350"
         style="fill:#7a6262;fill-opacity:1;fill-rule:nonzero;stroke:none"
         d="m 8230.1839,-127.71531 v -21.68 c 0,-5.231 -1.32,-9.188 -3.74,-11.789 -2.47,-2.66 -5.58,-3.949 -9.37,-3.949 -3.82,0 -6.88,1.308 -9.27,4.007 -2.36,2.629 -3.6,6.563 -3.6,11.731 v 72.230005 c 0,11.66 4.2,17.489 12.6,17.489 4.34,0 7.44,-1.348 9.34,-4.079 1.9,-2.738 2.95,-6.742 3.17,-12.082 3.08,5.34 6.24,9.344 9.49,12.082 3.32,2.731 7.62,4.079 13.09,4.079 5.49,0 10.73,-1.348 15.85,-4.079 5.16,-2.738 7.72,-6.371 7.72,-10.851 0,-3.149 -1.11,-5.797 -3.26,-7.809 -2.2,-2.09 -4.55,-3.121 -7.07,-3.121 -0.99,0 -3.31,0.633 -6.92,1.801 -3.65,1.129 -6.88,1.73 -9.63,1.73 -3.8,0 -6.92,-1.031 -9.31,-2.98 -2.43,-2.051 -4.31,-4.969 -5.65,-8.871 -1.29,-3.938 -2.19,-8.649005 -2.72,-14.039005 -0.49,-5.418 -0.72,-12.031 -0.72,-19.82" /><path
         id="path352"
         style="fill:#7a6262;fill-opacity:1;fill-rule:nonzero;stroke:none"
         d="m 8298.6539,-104.03631 h 47.01 c -0.62,8.840005 -2.98,15.492005 -7.14,19.860005 -4.18,4.421 -9.59,6.601 -16.4,6.601 -6.46,0 -11.77,-2.199 -15.92,-6.691 -4.14,-4.457 -6.68,-11.039 -7.55,-19.770005 m 50.74,-14.75 h -50.74 c 0.09,-5.879 1.24,-11.097 3.55,-15.59 2.35,-4.461 5.4,-7.859 9.24,-10.16 3.85,-2.277 8.04,-3.398 12.69,-3.398 3.1,0 5.93,0.328 8.49,1.109 2.54,0.699 5.05,1.86 7.46,3.41 2.42,1.52 4.6,3.18 6.64,5 2.02,1.75 4.66,4.16 7.9,7.192 1.34,1.129 3.24,1.738 5.68,1.738 2.69,0 4.82,-0.75 6.49,-2.219 1.66,-1.468 2.44,-3.511 2.44,-6.172 0,-2.359 -0.89,-5.078 -2.68,-8.199 -1.87,-3.172 -4.63,-6.16 -8.36,-9.058 -3.74,-2.852 -8.39,-5.27 -13.97,-7.141 -5.6,-1.902 -12.06,-2.859 -19.32,-2.859 -16.71,0 -29.64,4.73 -38.87,14.218 -9.24,9.52 -13.91,22.418 -13.91,38.68 0,7.672 1.17,14.789005 3.47,21.352005 2.25,6.578 5.58,12.16 9.99,16.867 4.36,4.711 9.7,8.293 16.13,10.793 6.37,2.488 13.46,3.738 21.28,3.738 10.1,0 18.8,-2.141 26.06,-6.461 7.24,-4.23 12.74,-9.758 16.29,-16.539 3.61,-6.809 5.42,-13.68 5.42,-20.738005 0,-6.492 -1.89,-10.711 -5.62,-12.66 -3.73,-1.93 -8.97,-2.903 -15.75,-2.903" /><path
         id="path354"
         style="fill:#7a6262;fill-opacity:1;fill-rule:nonzero;stroke:none"
         d="m 8406.5339,-104.03631 h 47.01 c -0.63,8.840005 -3.03,15.492005 -7.15,19.860005 -4.2,4.421 -9.61,6.601 -16.42,6.601 -6.46,0 -11.76,-2.199 -15.93,-6.691 -4.13,-4.457 -6.67,-11.039 -7.51,-19.770005 m 50.73,-14.75 h -50.73 c 0.06,-5.879 1.25,-11.097 3.55,-15.59 2.31,-4.461 5.39,-7.859 9.21,-10.16 3.82,-2.277 8.05,-3.398 12.71,-3.398 3.08,0 5.93,0.328 8.45,1.109 2.59,0.699 5.06,1.86 7.5,3.41 2.42,1.52 4.6,3.18 6.64,5 1.99,1.75 4.64,4.16 7.88,7.192 1.35,1.129 3.26,1.738 5.68,1.738 2.69,0 4.84,-0.75 6.51,-2.219 1.65,-1.468 2.4,-3.511 2.4,-6.172 0,-2.359 -0.87,-5.078 -2.74,-8.199 -1.76,-3.172 -4.55,-6.16 -8.3,-9.058 -3.7,-2.852 -8.4,-5.27 -13.95,-7.141 -5.58,-1.902 -12.08,-2.859 -19.35,-2.859 -16.67,0 -29.59,4.73 -38.86,14.218 -9.24,9.52 -13.89,22.418 -13.89,38.68 0,7.672 1.16,14.789005 3.48,21.352005 2.26,6.578 5.58,12.16 9.96,16.867 4.35,4.711 9.72,8.293 16.14,10.793 6.38,2.488 13.5,3.738 21.29,3.738 10.09,0 18.78,-2.141 26.13,-6.461 7.2,-4.23 12.66,-9.758 16.21,-16.539 3.6,-6.809 5.45,-13.68 5.45,-20.738005 0,-6.492 -1.91,-10.711 -5.61,-12.66 -3.75,-1.93 -9,-2.903 -15.76,-2.903" /><path
         id="path356"
         style="fill:#7a6262;fill-opacity:1;fill-rule:nonzero;stroke:none"
         d="m 8564.9039,-111.93431 c 0,6.84 -1.06,12.730005 -3.14,17.621005 -2.09,4.918 -4.99,8.668 -8.67,11.277 -3.67,2.633 -7.82,3.973 -12.32,3.973 -7.14,0 -13.18,-2.852 -18.09,-8.442 -4.92,-5.667 -7.39,-13.960005 -7.39,-24.929005 0,-10.27 2.44,-18.332 7.35,-24.071 4.88,-5.73 10.86,-8.582 18.13,-8.582 4.29,0 8.3,1.262 11.97,3.723 3.71,2.527 6.65,6.27 8.84,11.27 2.21,5.019 3.32,11.078 3.32,18.16 m -50.84,37.668005 v -3.098 c 4.86,6 9.94,10.418 15.24,13.238 5.19,2.84 11.19,4.27 17.83,4.27 7.95,0 15.35,-2.078 22.07,-6.18 6.71,-4.14 11.98,-10.148 15.89,-18.058 3.89,-7.95 5.86,-17.301005 5.86,-28.141005 0,-7.961 -1.13,-15.309 -3.36,-22.012 -2.24,-6.679 -5.38,-12.269 -9.29,-16.797 -3.94,-4.5 -8.56,-8.011 -13.9,-10.461 -5.42,-2.41 -11.11,-3.628 -17.27,-3.628 -7.39,0 -13.65,1.488 -18.66,4.468 -5.02,2.922 -9.82,7.34 -14.41,13.059 v -38.918 c 0,-11.359 -4.16,-17.102 -12.44,-17.102 -4.9,0 -8.09,1.461 -9.72,4.391 -1.51,2.992 -2.33,7.242 -2.33,12.91 v 111.930005 c 0,4.961 1.06,8.601 3.2,11.082 2.15,2.387 5.12,3.637 8.85,3.637 3.69,0 6.66,-1.25 8.95,-3.739 2.36,-2.539 3.49,-6.101 3.49,-10.851" /><path
         id="path358"
         style="fill:#7a6262;fill-opacity:1;fill-rule:nonzero;stroke:none"
         d="m 8629.9039,-74.395305 v -75.020005 c 0,-5.148 -1.24,-9.082 -3.7,-11.711 -2.5,-2.699 -5.61,-4.007 -9.41,-4.007 -3.81,0 -6.85,1.339 -9.28,4.058 -2.34,2.77 -3.56,6.653 -3.56,11.66 v 74.282005 c 0,5.097 1.22,8.949 3.56,11.539 2.43,2.648 5.47,3.918 9.28,3.918 3.8,0 6.91,-1.27 9.41,-3.918 2.46,-2.59 3.7,-6.219 3.7,-10.801 m -12.84,26.789 c -3.62,0 -6.69,1.141 -9.23,3.351 -2.6,2.231 -3.88,5.321 -3.88,9.372 0,3.679 1.31,6.699 3.97,9.097 2.62,2.34 5.66,3.551 9.14,3.551 3.4,0 6.36,-1.059 8.93,-3.191 2.6,-2.188 3.91,-5.34 3.91,-9.457 0,-4 -1.27,-7.11 -3.78,-9.364 -2.54,-2.218 -5.55,-3.359 -9.06,-3.359" /><path
         id="path360"
         style="fill:#7a6262;fill-opacity:1;fill-rule:nonzero;stroke:none"
         d="m 8713.4939,-153.29431 -22.84,37.649 -14.08,-13.281 v -20.649 c 0,-4.988 -1.33,-8.82 -3.96,-11.5 -2.57,-2.719 -5.67,-4.058 -9.07,-4.058 -3.98,0 -7.15,1.308 -9.4,4.007 -2.27,2.629 -3.44,6.563 -3.44,11.731 v 110.640005 c 0,5.731 1.14,10.11 3.31,13.129 2.23,3.051 5.45,4.532 9.53,4.532 4,0 7.13,-1.371 9.5,-4.121 2.34,-2.7 3.53,-6.731 3.53,-12.02 v -62.930005 l 29.16,30.629005 c 3.62,3.762 6.33,6.403 8.27,7.781 1.9,1.391 4.19,2.079 6.9,2.079 3.26,0 5.93,-1.028 8.15,-3.09 2.11,-2.059 3.2,-4.649 3.2,-7.731 0,-3.789 -3.53,-8.886 -10.54,-15.207 l -13.77,-12.633 26.59,-41.828005 c 1.93,-3.129 3.39,-5.441 4.24,-7.058 0.84,-1.59 1.3,-3.192 1.3,-4.621 0,-4.129 -1.15,-7.34 -3.41,-9.75 -2.25,-2.371 -5.24,-3.539 -8.86,-3.539 -3.16,0 -5.63,0.808 -7.33,2.558 -1.7,1.731 -4.08,4.832 -6.98,9.281" /><path
         id="path362"
         style="fill:#7a6262;fill-opacity:1;fill-rule:nonzero;stroke:none"
         d="m 8769.8539,-165.13331 c -3.91,0 -7.27,1.257 -10.14,3.808 -2.84,2.488 -4.28,6.059 -4.28,10.653 0,3.847 1.37,7.175 4.1,9.949 2.74,2.789 6.07,4.187 10.08,4.187 3.97,0 7.35,-1.398 10.22,-4.129 2.79,-2.75 4.22,-6.121 4.22,-10.007 0,-4.532 -1.43,-8.083 -4.22,-10.602 -2.87,-2.602 -6.19,-3.859 -9.98,-3.859" /><path
         id="path364"
         style="fill:#7a6262;fill-opacity:1;fill-rule:nonzero;stroke:none"
         d="m 8898.8439,-133.03631 c 0,-3.199 -0.97,-6.679 -2.91,-10.34 -1.92,-3.699 -4.89,-7.179 -8.86,-10.5 -3.95,-3.32 -8.92,-6.019 -14.95,-8.039 -6.01,-2.019 -12.81,-3.058 -20.31,-3.058 -16.06,0 -28.58,4.699 -37.57,14.008 -8.96,9.359 -13.46,21.902 -13.46,37.601 0,10.668 2.04,20.059005 6.19,28.238005 4.07,8.153 10.04,14.473 17.81,18.942 7.8,4.48 17.16,6.699 27.94,6.699 6.74,0 12.88,-0.98 18.53,-2.949 5.6,-1.961 10.32,-4.512 14.25,-7.59 3.86,-3.148 6.85,-6.441 8.89,-9.922 2.07,-3.519 3.08,-6.809 3.08,-9.879 0,-3.07 -1.13,-5.711 -3.43,-7.871 -2.35,-2.148 -5.16,-3.238005 -8.39,-3.238005 -2.19,0 -3.97,0.57 -5.41,1.660005 -1.43,1.121 -3.04,2.898 -4.78,5.418 -3.18,4.793 -6.47,8.422 -9.96,10.793 -3.43,2.43 -7.81,3.629 -13.14,3.629 -7.62,0 -13.84,-2.981 -18.53,-8.981 -4.68,-5.961 -7.04,-14.199005 -7.04,-24.539005 0,-4.879 0.63,-9.39 1.83,-13.48 1.17,-4.071 2.91,-7.559 5.21,-10.442 2.3,-2.871 5.04,-5.046 8.26,-6.539 3.24,-1.531 6.8,-2.257 10.63,-2.257 5.22,0 9.67,1.207 13.37,3.609 3.76,2.41 7.02,6.066 9.86,11.019 1.59,2.911 3.28,5.18 5.09,6.84 1.83,1.629 4.09,2.489 6.76,2.489 3.16,0 5.8,-1.231 7.86,-3.618 2.11,-2.41 3.18,-4.992 3.18,-7.703" /><path
         id="path366"
         style="fill:#7a6262;fill-opacity:1;fill-rule:nonzero;stroke:none"
         d="m 8984.7039,-112.42631 c 0,10.582 -2.34,18.812005 -6.98,24.683005 -4.63,5.957 -10.9,8.879 -18.74,8.879 -5.08,0 -9.55,-1.32 -13.43,-3.93 -3.86,-2.621 -6.8,-6.5 -8.89,-11.64 -2.09,-5.141 -3.16,-11.141005 -3.16,-17.992005 0,-6.789 1.03,-12.68 3.1,-17.739 2.08,-5.101 5.02,-8.968 8.86,-11.66 3.85,-2.66 8.35,-4.039 13.52,-4.039 7.84,0 14.11,2.961 18.74,8.918 4.64,5.902 6.98,14.113 6.98,24.52 m 26.04,0 c 0,-7.7 -1.22,-14.848 -3.55,-21.387 -2.48,-6.52 -5.92,-12.133 -10.5,-16.793 -4.55,-4.68 -10.02,-8.277 -16.32,-10.801 -6.4,-2.469 -13.5,-3.75 -21.39,-3.75 -7.85,0 -14.93,1.281 -21.21,3.832 -6.23,2.488 -11.71,6.141 -16.26,10.82 -4.61,4.77 -8.08,10.34 -10.52,16.77 -2.29,6.43 -3.5,13.539 -3.5,21.309 0,7.863 1.24,15.062005 3.58,21.582005 2.42,6.539 5.89,12.121 10.39,16.73 4.51,4.621 9.93,8.168 16.31,10.699 6.44,2.489 13.5,3.739 21.21,3.739 7.84,0 14.98,-1.25 21.39,-3.821 6.38,-2.508 11.83,-6.136 16.43,-10.789 4.58,-4.738 8.03,-10.289 10.4,-16.719 2.34,-6.511 3.54,-13.601005 3.54,-21.421005" /><path
         id="path368"
         style="fill:#7a6262;fill-opacity:1;fill-rule:nonzero;stroke:none"
         d="m 9109.6639,-114.33731 v -34.457 c 0,-5.472 -1.21,-9.511 -3.7,-12.281 -2.5,-2.719 -5.71,-4.082 -9.77,-4.082 -3.93,0 -7.14,1.363 -9.51,4.082 -2.47,2.77 -3.72,6.809 -3.72,12.281 v 41.309 c 0,6.531 -0.21,11.621005 -0.64,15.238005 -0.46,3.543 -1.68,6.563 -3.62,8.832 -1.96,2.352 -5.09,3.52 -9.31,3.52 -8.5,0 -14.07,-2.899 -16.77,-8.809 -2.67,-5.761 -4.06,-14.129005 -4.06,-25.070005 v -35.02 c 0,-5.382 -1.22,-9.461 -3.61,-12.242 -2.49,-2.73 -5.67,-4.121 -9.65,-4.121 -3.95,0 -7.17,1.391 -9.67,4.121 -2.52,2.781 -3.76,6.86 -3.76,12.242 v 74.188005 c 0,4.891 1.12,8.601 3.35,11.109 2.3,2.571 5.27,3.821 8.9,3.821 3.56,0 6.51,-1.227 8.92,-3.547 2.36,-2.391 3.54,-5.672 3.54,-9.852 v -2.449 c 4.53,5.348 9.35,9.32 14.44,11.809 5.17,2.601 10.82,3.859 17.13,3.859 6.52,0 12.11,-1.309 16.78,-3.899 4.7,-2.609 8.53,-6.55 11.6,-11.769 4.4,5.281 9.09,9.23 14.1,11.809 5,2.57 10.53,3.859 16.62,3.859 7.06,0 13.22,-1.43 18.34,-4.188 5.1,-2.793 8.93,-6.8 11.48,-11.961 2.21,-4.718 3.3,-12.101 3.3,-22.167 v -50.622005 c 0,-5.472 -1.22,-9.511 -3.67,-12.281 -2.46,-2.719 -5.75,-4.082 -9.8,-4.082 -3.94,0 -7.14,1.391 -9.65,4.121 -2.5,2.781 -3.76,6.86 -3.76,12.242 v 43.61 c 0,5.590005 -0.23,10.027005 -0.69,13.379005 -0.47,3.371 -1.77,6.199 -3.83,8.468 -2.12,2.274 -5.3,3.442 -9.53,3.442 -3.42,0 -6.66,-1.07 -9.74,-3.078 -3.06,-1.981 -5.46,-4.77 -7.2,-8.121 -1.86,-4.391 -2.84,-12.129005 -2.84,-23.243005" /><path
         id="path370"
         style="fill:#7a6262;fill-opacity:1;fill-rule:nonzero;stroke:none"
         d="m 7902.6139,-106.14531 c -0.02,0.051 -0.02,0.09 -0.02,0.172 0,-0.082 0,-0.121 0.02,-0.172" /><path
         id="path372"
         style="fill:#7a6262;fill-opacity:1;fill-rule:nonzero;stroke:none"
         d="m 7903.9239,-114.43431 c 0.02,0 0.02,0 0.03,0 -0.5,2.359 -0.89,4.699 -1.19,7.019 0.3,-2.34 0.69,-4.691 1.16,-7.019" /><path
         id="path374"
         style="fill:#7a6262;fill-opacity:1;fill-rule:nonzero;stroke:none"
         d="m 7912.5039,-138.50531 c -0.06,0.102 -0.1,0.219 -0.17,0.333 0.07,-0.114 0.11,-0.231 0.17,-0.333" /><path
         id="path376"
         style="fill:#7a6262;fill-opacity:1;fill-rule:nonzero;stroke:none"
         d="m 7911.6839,-136.90331 c -0.22,0.438 -0.44,0.898 -0.65,1.34 0.21,-0.473 0.43,-0.902 0.65,-1.34" /><path
         id="path378"
         style="fill:#7a6262;fill-opacity:1;fill-rule:nonzero;stroke:none"
         d="m 7906.3339,-123.70431 c 1.27,-4.011 2.8,-7.879 4.57,-11.582 -1.8,3.77 -3.3,7.66 -4.53,11.582 -0.01,0 -0.03,0 -0.04,0" /><path
         id="path380"
         style="fill:#7a6262;fill-opacity:1;fill-rule:nonzero;stroke:none"
         d="m 8002.9939,-6.7863051 c 5.01,0 8.71,-0.398 12.95,-1.109 l 1.2,7.62899998 c 0,0 -11.71,3.60100002 -27.11,2.34000002 l -1.21,4.152 c 4.79,1.008 8.38,5.2580001 8.38,10.3400001 0,5.82 -4.74,10.539 -10.57,10.539 -5.83,0 -10.56,-4.719 -10.56,-10.539 0,-5.082 3.59,-9.3320001 8.36,-10.3400001 l 1.34,-4.629 c -16.34,-2.25000002 -29.35,-8.621 -29.35,-8.621 l 2.3,-7.0509999 c 9.89,3.289 18.47,5.2889999 26.24,6.1289999 7.62,0.813 13.35,1.16 18.03,1.16" /><path
         id="path382"
         style="fill:#7a6262;fill-opacity:1;fill-rule:nonzero;stroke:none"
         d="m 7912.3139,-45.364305 0.06,0.078 c 0.38,0.492 0.75,0.961 1.13,1.422 l -3.13,2.258 -4.88,3.562 c -0.27,-0.382 -7.95,-7.441 -14.01,-20.48 -0.26,0.41 -0.56,0.809 -0.9,1.191 -1.82,1.989 -4.36,2.996 -7.58,2.938 -0.04,0 -0.1,0 -0.15,0 -2,0 -3.37,0.672 -4.27,1.48 0.9,1.129 1.43,2.559 1.43,4.129 0,3.68 -3,6.692 -6.69,6.692 -3.69,0 -6.69,-3.012 -6.69,-6.692 0,-3.699 3,-6.687 6.69,-6.687 0.58,0 1.13,0.097 1.67,0.207 1.64,-1.828 4.25,-3.418 8.07,-3.34 1.97,0.012 3.41,-0.488 4.38,-1.559 1.11,-1.211 1.48,-2.961 1.6,-4.269 -0.01,-0.02 -0.01,-0.051 -0.03,-0.051 -4.36,-11.898 -3.11,-26.699 -3.11,-26.699 l 10.57,-0.422 c 0.21,5.391 0.98,14.82 3.71,22.301 5.27,14.492 11.86,23.562 12.13,23.941" /><path
         id="path384"
         style="fill:#7a6262;fill-opacity:1;fill-rule:nonzero;stroke:none"
         d="m 8094.9839,-15.626305 c -3.68,0 -6.69,-2.98 -6.69,-6.687 0,-0.57 0.09,-1.121 0.23,-1.652 -1.83,-1.661 -3.42,-4.27 -3.37,-8.098 0.03,-1.973 -0.47,-3.402 -1.54,-4.371 -0.85,-0.75 -1.91,-1.153 -2.96,-1.399 -7.87,11.02 -17.56,17.746 -17.56,17.746 l -7.58,-8.128 c 5.73,-5.219 11.59,-11.75 17.28,-19.911 3.94,-5.629 7.99,-12.898 11.36,-20.14 l 10.24,4.863 c 0,0 -4.68,11.547 -11.26,21.91 1.15,0.399 2.3,1.028 3.31,1.93 2.01,1.797 2.99,4.359 2.93,7.578 -0.02,2.082 0.67,3.48 1.49,4.41 1.14,-0.871 2.57,-1.43 4.12,-1.43 3.71,0 6.7,3 6.7,6.692 0,3.707 -2.99,6.687 -6.7,6.687" /><path
         id="path386"
         style="fill:#7a6262;fill-opacity:1;fill-rule:nonzero;stroke:none"
         d="m 8068.4139,-107.64531 c -14.1,-6.86 -37.29,-15.938 -67.82,-20.188 -11.98,-1.66 -23.59,-2.281 -34.28,-2.281 -13.9,0 -26.19,1.039 -35.62,2.231 -10.77,1.359 -19.18,3.019 -24.32,4.179 1.23,-3.922 2.73,-7.812 4.53,-11.582 0.04,-0.097 0.08,-0.211 0.13,-0.277 0.21,-0.442 0.43,-0.902 0.65,-1.34 0.22,-0.441 0.43,-0.863 0.65,-1.269 0.07,-0.114 0.11,-0.231 0.17,-0.333 3.03,-5.699 6.67,-10.941 10.81,-15.488 14.4,-15.754 29.07,-18.242 29.21,-18.262 l 0.23,-0.031 0.21,-0.07 c 0.13,-0.047 13.14,-4.25 32.92,-4.25 19.45,0 38.54,3.922 56.74,11.672 13.47,6.89 26.22,17.359 32.53,26.699 4.89,7.219 8.41,14.93 10.5,22.941 1.12,4.25 1.99,11.071 1.48,18.250005 -3.97,-2.671 -10.24,-6.472005 -18.72,-10.601005" /><path
         id="path388"
         style="fill:#7a6262;fill-opacity:1;fill-rule:nonzero;stroke:none"
         d="m 7957.1139,-41.344305 c 15.57,0 28.17,-12.621 28.17,-28.172 0,-15.559 -12.6,-28.149 -28.17,-28.149 -15.54,0 -28.16,12.59 -28.16,28.149 0,15.551 12.62,28.172 28.16,28.172 z m 82.42,-0.692 c 9.61,0 17.43,-7.808 17.43,-17.429 0,-9.618 -7.82,-17.45 -17.43,-17.45 -9.62,0 -17.42,7.832 -17.42,17.45 0,9.621 7.8,17.429 17.42,17.429 z m -122.7,-6.668 c -0.41,-0.601 -6.52,-9.25 -11.35,-22.531 -3.62,-9.949 -3.46,-24.437 -3.46,-24.602 v -0.027 c 0,-3.402 0.19,-6.769005 0.57,-10.109005 0,-0.082 0,-0.121 0.02,-0.172 0.04,-0.43 0.11,-0.84 0.15,-1.27 0.3,-2.32 0.69,-4.66 1.19,-7.019 7,-1.781 48.78,-11.531 95.48,-5.02 29.27,4.071 51.5,12.719 64.99,19.258 11.21,5.441005 18.42,10.363005 21.2,12.391005 -2.77,10.281 -10.42,26.398 -17.43,36.461 -20.05,28.648 -41.67,36.011 -52.77,37.828 -4.24,0.703 -7.63,1.101 -12.43,1.101 -4.48,0 -10.02,-0.359 -17.44,-1.148 -7.43,-0.774 -15.71,-2.723 -25.32,-5.953 -13.47,-4.508 -25.67,-11.59 -35.27,-20.477 l -0.32,-0.301 c -1.42,-1.312 -4.39,-4.07 -7.81,-8.41" /></g></g></svg>