<svg width="375" height="44" viewBox="0 0 375 44" fill="none" xmlns="http://www.w3.org/2000/svg">
<path opacity="0.35" d="M336.5 20C336.5 18.8034 337.47 17.8333 338.667 17.8333H355.333C356.53 17.8333 357.5 18.8034 357.5 20V26C357.5 27.1966 356.53 28.1666 355.333 28.1666H338.667C337.47 28.1666 336.5 27.1966 336.5 26V20Z" stroke="black"/>
<path opacity="0.4" d="M359 21V25C359.805 24.6612 360.328 23.8731 360.328 23C360.328 22.1269 359.805 21.3388 359 21Z" fill="black"/>
<path d="M338 20.6666C338 19.9303 338.597 19.3333 339.333 19.3333H354.667C355.403 19.3333 356 19.9303 356 20.6666V25.3333C356 26.0697 355.403 26.6666 354.667 26.6666H339.333C338.597 26.6666 338 26.0697 338 25.3333V20.6666Z" fill="black"/>
<path fill-rule="evenodd" clip-rule="evenodd" d="M323.33 19.608C325.546 19.6081 327.677 20.4595 329.283 21.9863C329.404 22.1042 329.598 22.1027 329.717 21.983L330.873 20.8163C330.933 20.7556 330.967 20.6734 330.966 20.5878C330.966 20.5022 330.931 20.4203 330.87 20.3604C326.655 16.3208 320.005 16.3208 315.79 20.3604C315.729 20.4203 315.694 20.5021 315.694 20.5877C315.693 20.6733 315.727 20.7556 315.787 20.8163L316.943 21.983C317.062 22.1029 317.256 22.1044 317.377 21.9863C318.983 20.4595 321.114 19.608 323.33 19.608ZM323.33 23.4037C324.548 23.4036 325.722 23.8561 326.624 24.6734C326.746 24.7894 326.939 24.7869 327.058 24.6677L328.212 23.501C328.273 23.4398 328.307 23.3568 328.306 23.2706C328.305 23.1843 328.27 23.102 328.208 23.0421C325.459 20.4857 321.203 20.4857 318.455 23.0421C318.393 23.102 318.358 23.1843 318.357 23.2706C318.356 23.3569 318.39 23.4399 318.451 23.501L319.605 24.6677C319.724 24.7869 319.917 24.7894 320.039 24.6734C320.941 23.8567 322.114 23.4042 323.33 23.4037ZM325.643 25.9575C325.645 26.044 325.611 26.1274 325.549 26.188L323.552 28.2037C323.493 28.2629 323.414 28.2963 323.33 28.2963C323.247 28.2963 323.167 28.2629 323.109 28.2037L321.111 26.188C321.049 26.1274 321.015 26.0439 321.017 25.9575C321.019 25.871 321.056 25.789 321.121 25.731C322.396 24.6522 324.264 24.6522 325.54 25.731C325.604 25.7891 325.642 25.871 325.643 25.9575Z" fill="black"/>
<path fill-rule="evenodd" clip-rule="evenodd" d="M309.667 17.6667H308.667C308.114 17.6667 307.667 18.1144 307.667 18.6667V27.3334C307.667 27.8856 308.114 28.3334 308.667 28.3334H309.667C310.219 28.3334 310.667 27.8856 310.667 27.3334V18.6667C310.667 18.1144 310.219 17.6667 309.667 17.6667ZM304 20H305C305.552 20 306 20.4477 306 21V27.3333C306 27.8856 305.552 28.3333 305 28.3333H304C303.448 28.3333 303 27.8856 303 27.3333V21C303 20.4477 303.448 20 304 20ZM300.333 22.3334H299.333C298.781 22.3334 298.333 22.7811 298.333 23.3334V27.3334C298.333 27.8857 298.781 28.3334 299.333 28.3334H300.333C300.886 28.3334 301.333 27.8857 301.333 27.3334V23.3334C301.333 22.7811 300.886 22.3334 300.333 22.3334ZM295.667 24.3334H294.667C294.114 24.3334 293.667 24.7811 293.667 25.3334V27.3334C293.667 27.8857 294.114 28.3334 294.667 28.3334H295.667C296.219 28.3334 296.667 27.8857 296.667 27.3334V25.3334C296.667 24.7811 296.219 24.3334 295.667 24.3334Z" fill="black"/>
<path d="M37.7764 29.2393C40.2852 29.2393 41.7755 27.2773 41.7755 23.9551C41.7755 22.7041 41.5362 21.6514 41.0782 20.8379C40.4151 19.5732 39.2735 18.8896 37.8311 18.8896C35.6846 18.8896 34.1671 20.332 34.1671 22.3555C34.1671 24.2559 35.5343 25.6367 37.4141 25.6367C38.5694 25.6367 39.5059 25.0967 39.9708 24.1602H39.9913C39.9913 24.1602 40.0186 24.1602 40.0255 24.1602C40.0391 24.1602 40.087 24.1602 40.087 24.1602C40.087 26.416 39.2325 27.7627 37.7901 27.7627C36.9425 27.7627 36.2862 27.2979 36.0606 26.5527H34.3038C34.5977 28.1729 35.9718 29.2393 37.7764 29.2393ZM37.838 24.2354C36.7032 24.2354 35.8966 23.4287 35.8966 22.3008C35.8966 21.2002 36.7442 20.3594 37.8448 20.3594C38.9454 20.3594 39.793 21.2139 39.793 22.3281C39.793 23.4287 38.9659 24.2354 37.838 24.2354ZM44.5921 27.9541C45.2416 27.9541 45.6859 27.4893 45.6859 26.874C45.6859 26.252 45.2416 25.7939 44.5921 25.7939C43.9496 25.7939 43.4984 26.252 43.4984 26.874C43.4984 27.4893 43.9496 27.9541 44.5921 27.9541ZM44.5921 22.8271C45.2416 22.8271 45.6859 22.3691 45.6859 21.7539C45.6859 21.1318 45.2416 20.6738 44.5921 20.6738C43.9496 20.6738 43.4984 21.1318 43.4984 21.7539C43.4984 22.3691 43.9496 22.8271 44.5921 22.8271ZM52.2213 29H53.9098V27.1611H55.2428V25.6709H53.9098V19.1357H51.4215C49.6784 21.7607 48.2907 23.9551 47.402 25.5889V27.1611H52.2213V29ZM49.0358 25.6094C50.1842 23.5859 51.2096 21.9658 52.153 20.5713H52.2487V25.7119H49.0358V25.6094ZM59.1669 29H60.9306V19.1357H59.1738L56.5966 20.9404V22.6357L59.0507 20.9131H59.1669V29Z" fill="black"/>
</svg>
